<svg width="128" height="117" viewBox="0 0 128 117" fill="none" xmlns="http://www.w3.org/2000/svg">
<path d="M122.674 103.83C126.679 104.65 126.939 104.985 126.939 109.083C126.939 110.237 126.958 111.374 126.939 112.528C126.902 114.409 125.785 115.601 123.941 115.788C123.493 115.825 123.046 115.825 122.581 115.825C91.6414 115.825 60.6835 115.825 29.7442 115.825C27.0247 115.825 26.6335 115.434 26.6335 112.677C26.6335 111.094 26.6335 109.492 26.6335 107.816C19.3131 107.816 12.0673 107.816 4.76552 107.816C4.76552 109.194 4.76552 110.573 4.76552 112.137C5.19394 112.137 5.62236 112.137 6.0694 112.137C10.4095 112.137 14.7682 112.137 19.1082 112.137C19.5925 112.137 20.2445 112.063 20.5425 112.323C21.0454 112.77 21.6229 113.478 21.5856 114.037C21.567 114.596 20.9151 115.248 20.3935 115.657C20.0582 115.918 19.4435 115.825 18.9592 115.825C14.3211 115.844 9.70165 115.844 5.06355 115.825C2.06462 115.825 1.02151 114.745 1.00288 111.746C1.00288 110.442 1.00288 109.12 1.00288 107.816C1.00288 105.302 1.99011 104.221 4.48611 104.017C4.69101 103.998 4.87728 103.979 5.26845 103.942C5.26845 102.545 5.3057 101.167 5.23119 99.7887C5.21256 99.528 4.84003 99.2113 4.56062 99.0623C2.15775 97.7772 1.00288 95.7843 1.00288 93.0837C1.02151 89.5263 1.02151 85.9503 1.00288 82.3929C0.984255 79.6736 2.15775 77.6993 4.542 76.3769C4.87728 76.1907 5.24982 75.6692 5.24982 75.3153C5.28707 67.9025 5.26845 60.4897 5.26845 53.0583C5.26845 52.9093 5.21256 52.7417 5.17531 52.5182C4.78415 52.4995 4.43023 52.4995 4.07632 52.4623C2.26951 52.3133 1.05876 51.084 1.02151 49.2588C0.984255 47.4521 1.00288 45.6455 1.02151 43.8575C1.04014 41.6783 2.28814 40.4491 4.48611 40.4491C11.4526 40.4305 18.419 40.4491 25.3855 40.4491C31.4579 40.4491 37.5116 40.4491 43.584 40.4491C44.0311 40.4491 44.4781 40.4491 45.0555 40.4491C45.0742 39.9462 45.13 39.5178 45.13 39.0895C45.13 35.6811 45.1487 32.2913 45.13 28.8829C45.1114 25.9587 46.2477 23.6865 48.6505 21.973C52.7671 19.0488 56.8091 16.0502 60.907 13.126C61.8011 12.4928 62.2109 11.8409 62.1737 10.7234C62.0805 8.19039 62.1178 5.63875 62.1551 3.10573C62.1737 1.55985 63.2354 0.703089 64.5207 1.09422C65.5638 1.41084 65.8432 2.23035 65.8432 3.19886C65.8432 5.86225 65.8059 8.52564 65.8804 11.189C65.8991 11.7292 66.2716 12.4369 66.7 12.7722C70.7048 15.7522 74.7282 18.7322 78.8261 21.5818C81.6388 23.5375 82.9241 26.0705 82.8682 29.4789C82.775 35.3831 82.8495 41.2872 82.8495 47.1728C82.8495 47.657 82.8495 48.1413 82.8495 48.7186C96.3354 48.7186 109.728 48.7186 123.195 48.7186C123.195 47.2659 123.195 45.7945 123.195 44.1369C122.767 44.1369 122.301 44.1369 121.836 44.1369C111.46 44.1369 101.104 44.1369 90.7287 44.1369C90.3189 44.1369 89.9091 44.1555 89.4994 44.0996C88.4562 43.9506 87.7671 43.1497 87.8602 42.144C87.9533 41.101 88.5866 40.5422 89.6298 40.4491C89.9092 40.4305 90.2072 40.4305 90.4866 40.4305C101.346 40.4305 112.206 40.4305 123.065 40.4305C125.878 40.4305 126.977 41.548 126.977 44.379C126.977 45.8131 126.977 47.2473 126.977 48.6814C126.977 51.233 125.878 52.3692 123.363 52.4623C123.195 52.4623 123.046 52.4995 122.693 52.5182C122.693 52.9652 122.693 53.3935 122.693 53.8219C122.693 60.825 122.711 67.828 122.674 74.8497C122.674 75.6692 122.86 76.1534 123.661 76.5632C125.803 77.6621 126.921 79.5246 126.958 81.9272C127.014 85.7826 127.014 89.638 126.958 93.4748C126.921 95.9333 125.747 97.7958 123.568 98.9133C122.86 99.2858 122.637 99.677 122.674 100.422C122.73 101.577 122.674 102.713 122.674 103.83ZM45.3722 74.8311C45.3722 87.3285 45.3722 99.6397 45.3722 112.025C47.6447 112.025 49.8799 112.025 52.1896 112.025C52.1896 111.485 52.1896 111.038 52.1896 110.591C52.1896 105.339 52.1896 100.105 52.1896 94.8531C52.1896 92.0593 53.6612 90.5879 56.418 90.5879C61.4658 90.5879 66.4951 90.5879 71.543 90.5879C74.2998 90.5879 75.7713 92.0779 75.7713 94.8531C75.7713 100.143 75.7713 105.432 75.7713 110.703C75.7713 111.131 75.7713 111.56 75.7713 112.025C78.1369 112.025 80.3349 112.025 82.5515 112.025C82.5515 99.6025 82.5515 87.254 82.5515 74.8124C82.0113 74.8124 81.5643 74.8124 81.1172 74.8124C76.1252 74.8124 71.1146 74.8124 66.1226 74.8124C64.502 74.8124 63.6266 74.1419 63.6452 72.9313C63.6638 71.7579 64.4834 71.1247 66.0667 71.1247C69.9597 71.1247 73.8528 71.1247 77.7458 71.1247C78.1742 71.1247 78.6026 71.0874 79.0683 71.0688C79.1055 70.7522 79.1428 70.5659 79.1428 70.361C79.1428 56.4294 79.1428 42.4978 79.1428 28.5663C79.1428 27.0576 78.5281 25.9215 77.2801 25.0275C73.1636 22.0661 69.047 19.0861 64.9491 16.0688C64.2413 15.5473 63.7942 15.4914 63.0491 16.0502C59.063 18.993 55.0582 21.9171 51.0161 24.7667C49.4515 25.8656 48.8182 27.2439 48.8182 29.125C48.8554 42.6469 48.8368 56.1687 48.8368 69.6905C48.8368 70.1375 48.8368 70.5659 48.8368 71.1247C49.4515 71.1247 49.8799 71.1247 50.327 71.1247C52.4504 71.1247 54.5925 71.106 56.716 71.1433C57.8336 71.1619 58.5414 71.851 58.5973 72.8568C58.6532 73.8998 57.9454 74.7193 56.8277 74.8124C56.1385 74.8683 55.4307 74.8311 54.7415 74.8311C51.6495 74.8311 48.5947 74.8311 45.3722 74.8311ZM9.08696 52.5182C9.04971 52.7789 8.99383 52.9465 8.99383 53.0955C8.99383 60.4711 8.9752 67.8466 9.01245 75.2222C9.01245 75.5761 9.38499 76.1162 9.72028 76.2838C12.2722 77.5503 13.4643 79.5991 13.4829 82.4115C13.5015 85.9316 13.4829 89.4518 13.4829 92.9905C13.4829 95.8402 12.2722 97.9448 9.6644 99.1927C9.40362 99.3231 9.03108 99.5838 9.03108 99.8073C8.9752 101.186 8.99383 102.545 8.99383 103.905C14.9917 103.905 20.766 103.905 26.6335 103.905C26.6335 102.527 26.6708 101.26 26.6149 99.9936C26.5963 99.7142 26.3355 99.3231 26.0747 99.1927C23.3738 97.8703 22.2376 95.6726 22.2748 92.7298C22.3121 89.3773 22.2748 86.0061 22.2934 82.6536C22.2934 81.8341 22.3493 80.996 22.5728 80.2323C23.4297 77.2523 26.2982 75.4643 29.4089 75.8741C32.352 76.2466 34.6617 78.8355 34.699 81.89C34.7549 85.5778 34.6803 89.2655 34.7176 92.9533C34.7549 95.8216 33.5441 97.889 30.9736 99.1927C30.6942 99.3231 30.3775 99.677 30.3589 99.9563C30.303 101.26 30.3216 102.564 30.3216 103.942C34.1402 103.942 37.8283 103.942 41.5909 103.942C41.5909 103.402 41.5909 102.955 41.5909 102.508C41.5909 93.7728 41.6282 85.0563 41.5723 76.3211C41.5537 73.7136 42.3546 71.851 45.0183 71.1433C45.0183 64.9225 45.0183 58.7576 45.0183 52.5554C33.0225 52.5182 21.1013 52.5182 9.08696 52.5182ZM97.6207 103.923C97.6207 102.527 97.6579 101.223 97.5834 99.9377C97.5648 99.6583 97.1736 99.2858 96.857 99.1368C94.4541 97.8703 93.2247 95.9333 93.2247 93.1954C93.2247 89.5449 93.2247 85.8944 93.2247 82.2625C93.2247 81.741 93.262 81.2008 93.3738 80.6793C94.1002 77.5689 96.7639 75.6319 100.005 75.8554C102.948 76.0417 105.481 78.4816 105.593 81.5733C105.742 85.6709 105.705 89.7684 105.612 93.8659C105.556 96.2686 104.233 98.0007 102.11 99.1182C101.793 99.2858 101.383 99.6211 101.365 99.9005C101.29 101.241 101.327 102.582 101.327 103.942C107.269 103.942 113.062 103.942 118.986 103.942C118.986 102.676 119.06 101.484 118.949 100.31C118.911 99.9005 118.539 99.3603 118.185 99.1741C115.856 97.9634 114.571 96.1009 114.515 93.4934C114.441 89.638 114.441 85.7826 114.515 81.9458C114.571 79.4501 115.782 77.5503 118.036 76.4701C118.818 76.0976 118.986 75.6692 118.986 74.8869C118.967 67.8466 118.967 60.7877 118.967 53.7474C118.967 53.3563 118.93 52.9652 118.911 52.5927C106.822 52.5927 94.8639 52.5927 82.8682 52.5927C82.8682 58.8135 82.8682 64.9411 82.8682 71.1619C85.6808 71.8324 86.37 73.8253 86.3514 76.4514C86.2955 85.1307 86.3328 93.8287 86.3328 102.508C86.3328 102.992 86.3328 103.458 86.3328 103.961C90.1699 103.923 93.8394 103.923 97.6207 103.923ZM45.0742 44.2114C31.6069 44.2114 18.1955 44.2114 4.78415 44.2114C4.78415 45.7573 4.78415 47.21 4.78415 48.7C18.2328 48.7 31.6255 48.7 45.0742 48.7C45.0742 47.1728 45.0742 45.7014 45.0742 44.2114ZM55.9523 94.3502C55.9523 100.273 55.9523 106.121 55.9523 112.007C58.0199 112.007 60.0316 112.007 62.0433 112.007C62.0433 106.065 62.0433 100.236 62.0433 94.3502C59.9943 94.3502 58.0385 94.3502 55.9523 94.3502ZM65.8991 112.044C68.0225 112.044 69.997 112.044 71.9901 112.044C71.9901 106.084 71.9901 100.217 71.9901 94.4061C69.9038 94.4061 67.9108 94.4061 65.8991 94.4061C65.8991 100.292 65.8991 106.103 65.8991 112.044ZM101.365 112.025C108.741 112.025 115.968 112.025 123.177 112.025C123.177 110.554 123.177 109.176 123.177 107.816C115.856 107.816 108.629 107.816 101.365 107.816C101.365 109.25 101.365 110.591 101.365 112.025ZM4.70964 87.7383C4.70964 89.5449 4.69101 91.3329 4.70964 93.1395C4.72826 94.7786 5.71549 95.9147 7.14976 95.9706C8.62129 96.0264 9.75753 94.9089 9.77616 93.1768C9.81341 89.5263 9.81341 85.8944 9.77616 82.2439C9.75753 80.5117 8.67717 79.4501 7.14976 79.506C5.67824 79.5618 4.74689 80.6421 4.72826 82.3184C4.69101 84.125 4.70964 85.9316 4.70964 87.7383ZM123.251 87.6824C123.251 85.9316 123.27 84.1622 123.251 82.4115C123.233 80.6421 122.283 79.5432 120.774 79.5246C119.247 79.506 118.203 80.5676 118.185 82.3184C118.148 85.913 118.148 89.5263 118.185 93.1209C118.203 94.8531 119.247 95.9892 120.737 95.9892C122.208 95.9892 123.233 94.8158 123.251 93.1023C123.27 91.277 123.251 89.489 123.251 87.6824ZM31.0295 87.7383C31.0295 85.8944 31.0481 84.0505 31.0295 82.2066C31.0108 80.6048 30.0609 79.5432 28.6266 79.4873C27.1178 79.4315 26.0188 80.4372 26.0002 82.0948C25.9443 85.8199 25.9629 89.5449 26.0002 93.2699C26.0188 94.9089 27.1364 95.9892 28.5707 95.9519C30.005 95.9147 31.0108 94.7786 31.0108 93.1395C31.0481 91.3515 31.0295 89.5449 31.0295 87.7383ZM96.9315 87.7755C96.9315 89.6194 96.9129 91.4633 96.9315 93.3072C96.9501 94.8531 97.9932 95.9519 99.3903 95.9892C100.787 96.0264 101.924 94.9648 101.942 93.4189C101.998 89.6567 101.998 85.8944 101.942 82.1321C101.924 80.5303 100.862 79.5432 99.4275 79.5432C97.9374 79.5432 96.9501 80.6048 96.9315 82.2811C96.9129 84.0877 96.9315 85.9316 96.9315 87.7755ZM30.4148 112.025C34.1588 112.025 37.8469 112.025 41.535 112.025C41.535 110.573 41.535 109.194 41.535 107.779C37.8097 107.779 34.1402 107.779 30.4148 107.779C30.4148 109.213 30.4148 110.573 30.4148 112.025ZM86.3887 111.988C90.1886 111.988 93.8767 111.988 97.5462 111.988C97.5462 110.535 97.5462 109.194 97.5462 107.798C93.8022 107.798 90.114 107.798 86.3887 107.798C86.3887 109.232 86.3887 110.573 86.3887 111.988Z" fill="#FF8B36" stroke="#FF8B36" stroke-width="0.5" stroke-miterlimit="10"/>
<path d="M56.213 35.3831C56.213 34.3587 56.1199 33.3343 56.2316 32.31C56.6414 28.1379 59.8639 25.1765 63.9059 25.1393C67.9852 25.102 71.3008 27.9517 71.7106 32.1237C71.9341 34.2656 71.9341 36.482 71.7106 38.6239C71.3008 42.889 67.8362 45.8504 63.701 45.6828C59.4914 45.5152 56.3248 42.2744 56.1758 37.9534C56.1385 37.0966 56.1758 36.2399 56.1758 35.3645C56.1758 35.3831 56.1944 35.3831 56.213 35.3831ZM68.097 35.4203C68.097 34.5636 68.1342 33.6882 68.097 32.8315C67.948 30.4661 66.2343 28.8271 63.9618 28.8271C61.708 28.8457 59.9757 30.5033 59.8825 32.8873C59.808 34.5636 59.808 36.2399 59.8825 37.9347C59.9757 40.3188 61.708 41.995 63.9618 42.0136C66.2157 42.0323 67.948 40.3746 68.097 38.0092C68.1529 37.1339 68.097 36.2771 68.097 35.4203Z" fill="#FF8B36" stroke="#FF8B36" stroke-width="0.5" stroke-miterlimit="10"/>
<path d="M63.9805 54.4739C61.2423 54.4739 58.5041 54.4739 55.7474 54.4739C54.1641 54.4739 53.3631 53.8593 53.3445 52.6673C53.3259 51.4566 54.1454 50.7861 55.6915 50.7861C61.2237 50.7861 66.7372 50.7861 72.2694 50.7861C73.7968 50.7861 74.6351 51.4753 74.6164 52.6673C74.5978 53.8406 73.8341 54.4553 72.3253 54.4739C69.5499 54.4925 66.7745 54.4739 63.9805 54.4739Z" fill="#FF8B36" stroke="#FF8B36" stroke-width="0.5" stroke-miterlimit="10"/>
<path d="M63.9805 61.8494C61.1492 61.8494 58.3365 61.8494 55.5052 61.8494C54.1082 61.8494 53.3631 61.2162 53.3445 60.0614C53.3259 58.9253 54.0896 58.1803 55.4307 58.1617C61.1119 58.143 66.8118 58.143 72.493 58.1617C73.8341 58.1617 74.6164 58.9067 74.5978 60.0428C74.5792 61.1976 73.8341 61.8308 72.4371 61.8308C69.6431 61.8681 66.8118 61.8494 63.9805 61.8494Z" fill="#FF8B36" stroke="#FF8B36" stroke-width="0.5" stroke-miterlimit="10"/>
<path d="M64.0363 80.4743C65.1353 80.4743 66.2343 80.4371 67.3519 80.4743C68.4882 80.5116 69.1587 81.1635 69.196 82.1878C69.2519 83.1936 68.6186 84.069 67.5382 84.1062C65.1726 84.1994 62.807 84.1994 60.4413 84.1062C59.361 84.069 58.7277 83.2308 58.7649 82.2065C58.8022 81.1821 59.4727 80.5116 60.5904 80.4743C61.7452 80.4371 62.9001 80.4743 64.0363 80.4743Z" fill="#FF8B36" stroke="#FF8B36" stroke-width="0.5" stroke-miterlimit="10"/>
<path d="M38.9832 63.4325C38.9832 64.5314 39.0204 65.6303 38.9832 66.7478C38.9459 67.9026 38.2009 68.6662 37.195 68.6848C36.2078 68.7035 35.3696 67.9398 35.3323 66.8037C35.2764 64.5687 35.2764 62.315 35.3323 60.0614C35.3696 58.9253 36.2078 58.1616 37.195 58.1803C38.2009 58.1989 38.9459 58.9625 38.9832 60.1173C39.0018 61.2348 38.9832 62.3337 38.9832 63.4325Z" fill="#FF8B36" stroke="#FF8B36" stroke-width="0.5" stroke-miterlimit="10"/>
<path d="M18.8288 63.5441C18.8288 64.6058 18.8661 65.6674 18.8288 66.729C18.7916 67.9024 18.0651 68.6661 17.0593 68.6847C16.0348 68.7219 15.1966 67.921 15.1779 66.7104C15.1407 64.5126 15.1407 62.2963 15.1779 60.0985C15.2152 58.9624 16.0161 58.1987 17.022 58.1987C18.0279 58.1987 18.7916 58.9624 18.8288 60.1171C18.8661 61.2532 18.8288 62.3894 18.8288 63.5441Z" fill="#FF8B36" stroke="#FF8B36" stroke-width="0.5" stroke-miterlimit="10"/>
<path d="M28.8873 63.6002C28.8873 64.6618 28.9246 65.7234 28.8873 66.7851C28.8314 67.9212 28.0491 68.6848 27.0619 68.6848C26.1119 68.6848 25.2737 67.9584 25.2551 66.8782C25.1992 64.5873 25.1992 62.315 25.2551 60.0241C25.2923 58.9066 26.1678 58.143 27.155 58.1803C28.105 58.2175 28.8501 58.9625 28.8873 60.0428C28.9246 61.2348 28.8873 62.4268 28.8873 63.6002Z" fill="#FF8B36" stroke="#FF8B36" stroke-width="0.5" stroke-miterlimit="10"/>
<path d="M104.047 63.4884C104.047 64.55 104.084 65.6117 104.047 66.6733C103.991 67.8839 103.209 68.6848 102.166 68.6662C101.123 68.6476 100.377 67.8467 100.377 66.6174C100.359 64.4942 100.359 62.3709 100.377 60.2476C100.396 58.9997 101.123 58.1989 102.166 58.1802C103.209 58.1616 104.01 58.9625 104.047 60.1731C104.084 61.2906 104.047 62.3895 104.047 63.4884Z" fill="#FF8B36" stroke="#FF8B36" stroke-width="0.5" stroke-miterlimit="10"/>
<path d="M110.436 63.3952C110.436 62.2963 110.417 61.1974 110.455 60.0799C110.492 58.9996 111.2 58.2546 112.168 58.1987C113.156 58.1429 114.068 58.8879 114.106 60.0054C114.161 62.2963 114.161 64.5872 114.106 66.8594C114.068 67.9769 113.193 68.7406 112.187 68.6847C111.181 68.6475 110.473 67.8652 110.436 66.7104C110.417 65.5929 110.436 64.494 110.436 63.3952Z" fill="#FF8B36" stroke="#FF8B36" stroke-width="0.5" stroke-miterlimit="10"/>
<path d="M93.9699 63.4697C93.9699 64.5314 94.0071 65.593 93.9699 66.6546C93.9326 67.8839 93.1689 68.6848 92.1258 68.6848C91.0827 68.6848 90.319 67.8839 90.3003 66.6546C90.2817 64.4941 90.2817 62.315 90.3003 60.1545C90.319 58.9997 91.0454 58.2175 92.0513 58.1802C93.0944 58.143 93.8767 58.9438 93.9699 60.1545C93.9699 60.229 93.9699 60.3221 93.9699 60.3966C93.9699 61.421 93.9699 62.4453 93.9699 63.4697Z" fill="#FF8B36" stroke="#FF8B36" stroke-width="0.5" stroke-miterlimit="10"/>
</svg>
