<svg width="117" height="117" viewBox="0 0 117 117" fill="none" xmlns="http://www.w3.org/2000/svg">
<path d="M73.535 47.9256C74.1303 47.9256 74.5726 47.9256 75.0148 47.9256C84.4043 47.9256 93.8107 47.9256 103.2 47.9256C106.806 47.9256 108.354 49.5074 108.354 53.1471C108.354 69.6281 108.354 86.092 108.354 102.573C108.354 103.015 108.354 103.457 108.354 104.036C109.069 104.036 109.647 104.019 110.242 104.036C113.525 104.206 116.026 106.791 116.009 110.023C115.992 113.237 113.457 115.839 110.191 115.992C109.885 116.009 109.596 115.992 109.29 115.992C75.4061 115.992 41.5225 115.992 7.63887 115.992C4.25391 115.992 1.88951 114.309 1.17509 111.4C0.29058 107.794 2.85908 104.274 6.58424 104.036C7.2136 104.002 7.84298 104.036 8.64244 104.036C8.64244 103.457 8.64244 102.981 8.64244 102.522C8.64244 70.7676 8.64244 39.0303 8.64244 7.27603C8.64244 3.94242 10.4625 1.6123 13.4903 1.08504C13.9665 1 14.4598 1 14.9361 1C32.3371 1 49.7552 1 67.1563 1C71.1536 1 73.484 3.34713 73.484 7.36107C73.484 20.3893 73.484 33.4176 73.484 46.4459C73.535 46.8881 73.535 47.3303 73.535 47.9256ZM70.167 47.9256C70.167 47.3984 70.167 47.0412 70.167 46.667C70.167 33.6387 70.167 20.6105 70.167 7.58217C70.167 5.13299 69.3846 4.35062 66.9522 4.35062C49.7382 4.35062 32.5073 4.35062 15.2933 4.35062C12.8269 4.35062 12.0614 5.11598 12.0614 7.54816C12.0614 39.2514 12.0614 70.9717 12.0614 102.675C12.0614 103.066 12.0614 103.474 12.0614 103.9C25.278 103.9 38.3586 103.9 51.5243 103.9C51.5243 102.165 51.4902 100.532 51.5413 98.8822C51.5753 97.6576 52.5619 96.8582 53.6165 97.1814C54.535 97.4535 54.8922 98.1508 54.8922 99.0693C54.8922 100.668 54.8922 102.267 54.8922 103.917C71.6639 103.917 88.2996 103.917 105.003 103.917C105.003 103.457 105.003 103.083 105.003 102.726C105.003 86.1771 105.003 69.6281 105.003 53.0791C105.003 51.4123 104.884 51.2933 103.217 51.2933C87.7212 51.2933 72.2252 51.2933 56.7122 51.2933C54.9262 51.2933 54.8752 51.3273 54.8752 53.1131C54.8752 65.5121 54.8752 77.8941 54.8752 90.2931C54.8752 91.7898 54.2799 92.6062 53.1742 92.6062C52.0856 92.6062 51.5073 91.8238 51.4903 90.3101C51.4903 90.242 51.4903 90.157 51.4903 90.089C51.4903 77.69 51.4903 65.308 51.4903 52.909C51.4903 49.4904 53.0721 47.9086 56.5081 47.9086C61.0157 47.9256 65.5063 47.9256 70.167 47.9256ZM58.5323 112.608C75.3721 112.608 92.2118 112.608 109.069 112.608C109.511 112.608 109.97 112.625 110.412 112.557C111.756 112.353 112.709 111.196 112.658 109.886C112.607 108.56 111.603 107.522 110.225 107.403C109.817 107.369 109.409 107.369 108.984 107.369C75.338 107.369 41.6926 107.369 8.04709 107.369C7.60483 107.369 7.14555 107.369 6.70329 107.403C5.47858 107.539 4.56006 108.458 4.42398 109.665C4.2879 110.839 4.98532 112.013 6.14199 112.387C6.70332 112.557 7.31563 112.591 7.91098 112.591C24.7847 112.608 41.6585 112.608 58.5323 112.608Z" fill="#FF8B36" stroke="#FF8B36" stroke-width="0.5" stroke-miterlimit="10"/>
<path d="M94.9674 5.2182C101.074 5.26922 106.602 9.21513 108.405 14.8278C108.745 15.8993 108.388 16.8178 107.487 17.1409C106.551 17.4811 105.701 17.0389 105.258 16.0014C105.173 15.7973 105.105 15.5762 105.02 15.3721C103.319 11.2221 99.3219 8.56882 94.8143 8.60283C88.1634 8.65386 83.1115 14.5387 83.996 21.1379C84.7104 26.4104 87.551 30.4924 91.2081 34.1151C92.1607 35.0676 93.2493 35.884 94.2359 36.7854C94.6782 37.1766 95.0184 37.1936 95.4776 36.8024C99.9683 33.1457 103.744 28.9957 105.343 23.2469C105.667 22.0733 106.517 21.5801 107.538 21.8862C108.456 22.1584 108.881 23.0258 108.592 24.1653C107.759 27.3969 106.33 30.3903 104.119 32.8735C101.924 35.3567 99.4579 37.6018 97.0085 39.8299C95.7838 40.9524 94.304 40.9864 93.0792 40.085C87.9253 36.2922 83.6728 31.717 81.5806 25.526C79.4714 19.267 80.3219 13.5352 85.3568 8.87496C88.0444 6.37476 91.2932 5.20119 94.9674 5.2182Z" fill="#FF8B36" stroke="#FF8B36" stroke-width="0.5" stroke-miterlimit="10"/>
<path d="M102.826 19.5048C102.826 23.944 99.2708 27.4987 94.8483 27.4817C90.4937 27.4647 86.9216 23.8929 86.9046 19.5388C86.8876 15.1677 90.5448 11.528 94.9333 11.545C99.2878 11.579 102.826 15.1337 102.826 19.5048ZM99.441 19.5048C99.4239 16.9706 97.3997 14.9296 94.8823 14.9296C92.3818 14.9296 90.3066 16.9876 90.2726 19.5048C90.2386 22.039 92.3648 24.1481 94.9333 24.1311C97.4508 24.097 99.458 22.056 99.441 19.5048Z" fill="#FF8B36" stroke="#FF8B36" stroke-width="0.5" stroke-miterlimit="10"/>
<path d="M41.1313 45.9016C40.0427 45.9016 38.954 45.9186 37.8824 45.9016C35.7562 45.8675 34.3444 44.4899 34.3103 42.3979C34.2763 40.1868 34.2763 37.9757 34.3103 35.7817C34.3444 33.7747 35.6541 32.38 37.6782 32.312C39.9576 32.244 42.2369 32.244 44.5162 32.312C46.5404 32.363 47.8672 33.7237 47.9182 35.7477C47.9692 37.9928 47.9692 40.2378 47.9182 42.4829C47.8672 44.5409 46.4553 45.8675 44.3971 45.9186C43.2915 45.9186 42.2199 45.9016 41.1313 45.9016ZM44.4482 42.4659C44.4482 40.1528 44.4482 37.9587 44.4482 35.7477C42.1348 35.7477 39.9236 35.7477 37.7293 35.7477C37.7293 38.0438 37.7293 40.2208 37.7293 42.4659C39.9916 42.4659 42.1859 42.4659 44.4482 42.4659Z" fill="#FF8B36" stroke="#FF8B36" stroke-width="0.5" stroke-miterlimit="10"/>
<path d="M41.1143 87.9289C39.9916 87.9289 38.869 87.946 37.7463 87.9289C35.8072 87.8949 34.3614 86.5853 34.3104 84.6634C34.2423 82.3162 34.2423 79.9521 34.3104 77.588C34.3614 75.7001 35.7732 74.4074 37.6783 74.3734C39.9576 74.3394 42.2369 74.3394 44.5162 74.3734C46.4213 74.4074 47.8161 75.666 47.8841 77.571C47.9692 79.9691 47.9862 82.3673 47.8841 84.7484C47.7991 86.6533 46.3873 87.8779 44.4822 87.9119C43.3595 87.946 42.2369 87.9289 41.1143 87.9289ZM37.7293 77.8261C37.7293 80.0712 37.7293 82.2482 37.7293 84.4933C39.9916 84.4933 42.2199 84.4933 44.4822 84.4933C44.4822 82.2482 44.4822 80.0712 44.4822 77.8261C42.2029 77.8261 39.9916 77.8261 37.7293 77.8261Z" fill="#FF8B36" stroke="#FF8B36" stroke-width="0.5" stroke-miterlimit="10"/>
<path d="M30.7043 39.0814C30.7043 40.238 30.7213 41.3945 30.7043 42.5511C30.6532 44.422 29.3264 45.8166 27.4554 45.8677C25.108 45.9357 22.7436 45.9357 20.3963 45.8677C18.5252 45.8166 17.2154 44.422 17.1814 42.5171C17.1474 40.238 17.1474 37.9589 17.1814 35.6798C17.2154 33.7578 18.4571 32.3802 20.3792 32.3121C22.7606 32.2101 25.159 32.2101 27.5574 32.3121C29.4795 32.3972 30.6872 33.7918 30.7212 35.7138C30.7212 36.8363 30.7043 37.9589 30.7043 39.0814ZM27.2513 42.483C27.2513 40.1699 27.2513 37.9589 27.2513 35.7308C24.9889 35.7308 22.8116 35.7308 20.6174 35.7308C20.6174 38.0269 20.6174 40.238 20.6174 42.483C22.8457 42.483 24.9889 42.483 27.2513 42.483Z" fill="#FF8B36" stroke="#FF8B36" stroke-width="0.5" stroke-miterlimit="10"/>
<path d="M65.064 39.0644C65.064 40.2209 65.081 41.3775 65.064 42.5341C65.013 44.422 63.7032 45.8166 61.8151 45.8677C59.4678 45.9357 57.1034 45.9357 54.7561 45.8677C52.885 45.8166 51.5583 44.422 51.5242 42.5171C51.4902 40.238 51.4902 37.9589 51.5242 35.6798C51.5583 33.7578 52.7829 32.3802 54.7051 32.3121C57.0864 32.2101 59.4848 32.2101 61.8832 32.3121C63.8053 32.3972 65.013 33.7918 65.064 35.6968C65.098 36.8363 65.064 37.9589 65.064 39.0644ZM54.9772 35.6968C54.9772 38.0269 54.9772 40.238 54.9772 42.449C57.2565 42.449 59.4338 42.449 61.611 42.449C61.611 40.1699 61.611 37.9418 61.611 35.6968C59.3657 35.6968 57.2225 35.6968 54.9772 35.6968Z" fill="#FF8B36" stroke="#FF8B36" stroke-width="0.5" stroke-miterlimit="10"/>
<path d="M41.1823 53.3174C42.2369 53.3174 43.2745 53.3004 44.3291 53.3174C46.4043 53.3344 47.8501 54.644 47.9012 56.685C47.9692 58.9641 47.9692 61.2432 47.9012 63.5223C47.8501 65.4952 46.5404 66.8219 44.5672 66.8899C42.2539 66.958 39.9236 66.958 37.6102 66.8899C35.6541 66.8219 34.3444 65.4442 34.3103 63.4883C34.2763 61.2432 34.2763 58.9981 34.3103 56.753C34.3444 54.712 35.7732 53.3514 37.8314 53.3174C38.937 53.3174 40.0597 53.3174 41.1823 53.3174ZM37.7293 56.736C37.7293 59.0321 37.7293 61.2262 37.7293 63.4883C39.9916 63.4883 42.2199 63.4883 44.4482 63.4883C44.4482 61.1922 44.4482 58.9811 44.4482 56.736C42.1859 56.736 40.0256 56.736 37.7293 56.736Z" fill="#FF8B36" stroke="#FF8B36" stroke-width="0.5" stroke-miterlimit="10"/>
<path d="M41.0802 11.29C42.2029 11.29 43.3255 11.273 44.4482 11.29C46.4213 11.324 47.8161 12.5827 47.8841 14.5386C47.9692 16.8857 47.9692 19.2499 47.8841 21.597C47.8161 23.5019 46.4213 24.7945 44.5332 24.8286C42.2539 24.8626 39.9746 24.8626 37.6953 24.8286C35.7562 24.7945 34.3444 23.4679 34.3103 21.529C34.2593 19.2159 34.2423 16.8857 34.3103 14.5726C34.3614 12.6337 35.7732 11.324 37.7123 11.29C38.852 11.273 39.9746 11.29 41.0802 11.29ZM37.7123 21.3589C40.0426 21.3589 42.2539 21.3589 44.4652 21.3589C44.4652 19.0798 44.4652 16.9027 44.4652 14.7427C42.1689 14.7427 39.9576 14.7427 37.7123 14.7427C37.7123 16.9878 37.7123 19.1308 37.7123 21.3589Z" fill="#FF8B36" stroke="#FF8B36" stroke-width="0.5" stroke-miterlimit="10"/>
<path d="M30.7043 60.1546C30.7043 61.3111 30.7383 62.4677 30.7043 63.6242C30.6532 65.3761 29.4795 66.7707 27.7445 66.8388C25.21 66.9578 22.6586 66.9578 20.1241 66.8388C18.3891 66.7537 17.1984 65.3591 17.1814 63.6072C17.1474 61.2941 17.1474 58.964 17.1814 56.6509C17.2154 54.7119 18.5932 53.3513 20.5323 53.3173C22.8117 53.2832 25.091 53.2832 27.3703 53.3173C29.2924 53.3513 30.6702 54.7289 30.7212 56.6509C30.7212 57.8244 30.7043 58.998 30.7043 60.1546ZM20.5834 56.7359C20.5834 59.032 20.5834 61.2261 20.5834 63.4882C22.8287 63.4882 25.023 63.4882 27.2513 63.4882C27.2513 61.2091 27.2513 58.998 27.2513 56.7359C25.0059 56.7359 22.8457 56.7359 20.5834 56.7359Z" fill="#FF8B36" stroke="#FF8B36" stroke-width="0.5" stroke-miterlimit="10"/>
<path d="M30.7042 18.0081C30.7042 19.1646 30.7212 20.3212 30.7042 21.4777C30.6532 23.4337 29.3263 24.7943 27.3702 24.8114C25.0909 24.8454 22.8116 24.8454 20.5323 24.8114C18.5591 24.7773 17.1983 23.4677 17.1643 21.5118C17.1303 19.1986 17.1303 16.8685 17.1643 14.5554C17.1983 12.6505 18.5421 11.3068 20.4302 11.2728C22.7436 11.2388 25.0739 11.2388 27.3872 11.2728C29.3264 11.3068 30.6532 12.6675 30.7042 14.6234C30.7212 15.763 30.7042 16.8855 30.7042 18.0081ZM27.2512 21.4097C27.2512 19.0966 27.2512 16.9025 27.2512 14.7425C24.9889 14.7425 22.7946 14.7425 20.6003 14.7425C20.6003 17.0046 20.6003 19.1816 20.6003 21.4097C22.8286 21.4097 25.0229 21.4097 27.2512 21.4097Z" fill="#FF8B36" stroke="#FF8B36" stroke-width="0.5" stroke-miterlimit="10"/>
<path d="M58.1581 24.8284C57.0354 24.8284 55.9128 24.8625 54.7901 24.8284C52.902 24.7774 51.5582 23.4508 51.5242 21.5459C51.4732 19.2327 51.4902 16.9026 51.5242 14.5895C51.5582 12.6336 52.919 11.3069 54.8922 11.2899C57.1715 11.2559 59.4508 11.2559 61.7301 11.2899C63.6863 11.3239 65.03 12.6676 65.0641 14.6235C65.0981 16.9026 65.0981 19.1817 65.0641 21.4608C65.03 23.4678 63.6693 24.7774 61.6451 24.8284C60.4884 24.8455 59.3317 24.8284 58.1581 24.8284ZM54.9602 14.7086C54.9602 17.0047 54.9602 19.1987 54.9602 21.4098C57.2225 21.4098 59.3998 21.4098 61.5941 21.4098C61.5941 19.1307 61.5941 16.9366 61.5941 14.7086C59.3488 14.7086 57.2055 14.7086 54.9602 14.7086Z" fill="#FF8B36" stroke="#FF8B36" stroke-width="0.5" stroke-miterlimit="10"/>
<path d="M30.7043 81.1597C30.7043 82.2822 30.7213 83.4048 30.7043 84.5273C30.6703 86.5513 29.3265 87.9119 27.3193 87.9289C25.04 87.963 22.7607 87.963 20.4814 87.9289C18.5933 87.9119 17.2155 86.5683 17.1644 84.6974C17.1134 82.3502 17.1134 79.9861 17.1644 77.639C17.1984 75.8021 18.5252 74.4584 20.3623 74.4074C22.7097 74.3564 25.074 74.3564 27.4214 74.4074C29.3265 74.4414 30.6363 75.8021 30.6873 77.69C30.7213 78.8295 30.7043 80.0031 30.7043 81.1597ZM27.2513 84.5103C27.2513 82.2142 27.2513 80.0201 27.2513 77.8091C25.006 77.8091 22.8117 77.8091 20.6005 77.8091C20.6005 80.0882 20.6005 82.2822 20.6005 84.5103C22.8628 84.5103 25.023 84.5103 27.2513 84.5103Z" fill="#FF8B36" stroke="#FF8B36" stroke-width="0.5" stroke-miterlimit="10"/>
<path d="M101.006 90.5142C101.006 91.5687 101.023 92.6062 101.006 93.6607C100.955 95.2595 99.9853 96.4331 98.4034 96.5011C96.056 96.6032 93.6917 96.6032 91.3443 96.5011C89.8815 96.4501 88.8609 95.4466 88.7929 94.0009C88.6908 91.6878 88.6908 89.3577 88.7758 87.0445C88.8439 85.5478 89.8815 84.5273 91.3954 84.4763C93.7087 84.3913 96.039 84.3743 98.3524 84.4763C99.9853 84.5443 100.955 85.7179 101.006 87.3847C101.04 88.4222 101.006 89.4767 101.006 90.5142ZM92.1608 93.1335C94.0489 93.1335 95.7839 93.1335 97.5699 93.1335C97.5699 91.3476 97.5699 89.6128 97.5699 87.8779C95.7329 87.8779 93.9639 87.8779 92.1608 87.8779C92.1608 89.6638 92.1608 91.3646 92.1608 93.1335Z" fill="#FF8B36" stroke="#FF8B36" stroke-width="0.5" stroke-miterlimit="10"/>
<path d="M73.7903 90.4461C73.7903 89.3916 73.7732 88.3541 73.7903 87.2996C73.8413 85.7179 74.8449 84.5443 76.4098 84.4763C78.7231 84.3742 81.0534 84.3742 83.3668 84.4593C84.9487 84.5103 86.0032 85.5988 86.0543 87.2146C86.1393 89.3746 86.1393 91.5517 86.0543 93.7287C85.9862 95.3955 84.9317 96.45 83.2647 96.5181C81.0194 96.6031 78.7741 96.6031 76.5288 96.5181C74.8279 96.45 73.8243 95.2765 73.7732 93.5757C73.7732 92.5382 73.7903 91.4836 73.7903 90.4461ZM77.2262 87.8439C77.2262 89.6638 77.2262 91.3816 77.2262 93.1334C79.0633 93.1334 80.8323 93.1334 82.6353 93.1334C82.6353 91.3306 82.6353 89.6127 82.6353 87.8439C80.7983 87.8439 79.0633 87.8439 77.2262 87.8439Z" fill="#FF8B36" stroke="#FF8B36" stroke-width="0.5" stroke-miterlimit="10"/>
<path d="M71.1195 90.4801C71.1195 91.5686 71.1535 92.6571 71.1195 93.7287C71.0685 95.2594 70.0819 96.416 68.568 96.484C66.2207 96.586 63.8563 96.586 61.509 96.501C59.9271 96.433 58.9065 95.3274 58.8554 93.7116C58.7874 91.5856 58.7874 89.4426 58.8554 87.3166C58.9065 85.5987 59.9951 84.5102 61.6961 84.4592C63.9074 84.3912 66.1186 84.3741 68.3129 84.4592C70.0649 84.5272 71.1025 85.6838 71.1365 87.4526C71.1365 88.4561 71.1195 89.4596 71.1195 90.4801ZM67.7006 87.8778C65.8295 87.8778 64.0434 87.8778 62.2574 87.8778C62.2574 89.6637 62.2574 91.3645 62.2574 93.1334C64.0945 93.1334 65.8805 93.1334 67.7006 93.1334C67.7006 91.3645 67.7006 89.6637 67.7006 87.8778Z" fill="#FF8B36" stroke="#FF8B36" stroke-width="0.5" stroke-miterlimit="10"/>
<path d="M64.979 56.8889C66.0336 56.8889 67.0712 56.8719 68.1258 56.8889C69.9289 56.9229 71.1025 58.0285 71.1195 59.8143C71.1535 61.9063 71.1535 63.9983 71.1195 66.1074C71.0855 67.7742 69.9799 68.9647 68.3129 68.9987C66.1016 69.0668 63.8904 69.0498 61.6961 68.9987C60.0971 68.9647 58.9235 67.8592 58.8724 66.2264C58.7874 64.0153 58.7704 61.8043 58.8724 59.6102C58.9405 57.9264 60.1482 56.9229 61.8492 56.8889C62.8698 56.8719 63.9244 56.8889 64.979 56.8889ZM62.2574 65.5801C64.1455 65.5801 65.9145 65.5801 67.7006 65.5801C67.7006 63.7942 67.7006 62.0934 67.7006 60.3416C65.8635 60.3416 64.0944 60.3416 62.2574 60.3416C62.2574 62.0934 62.2574 63.7942 62.2574 65.5801Z" fill="#FF8B36" stroke="#FF8B36" stroke-width="0.5" stroke-miterlimit="10"/>
<path d="M79.9138 56.8889C80.9684 56.8889 82.006 56.8719 83.0606 56.8889C84.8126 56.9229 86.0033 57.9604 86.0713 59.7123C86.1564 61.8383 86.1564 63.9813 86.0713 66.1074C86.0033 67.8932 84.8126 68.9988 83.0266 69.0158C80.9684 69.0498 78.9102 69.0498 76.852 69.0158C74.9469 68.9817 73.8072 67.8252 73.7902 65.9033C73.7732 63.9133 73.7732 61.9403 73.7902 59.9504C73.8072 58.0285 74.9469 56.9229 76.886 56.8889C77.9066 56.8889 78.9102 56.8889 79.9138 56.8889ZM82.6523 60.3416C80.7812 60.3416 78.9952 60.3416 77.2092 60.3416C77.2092 62.1274 77.2092 63.8283 77.2092 65.5801C79.0463 65.5801 80.8153 65.5801 82.6523 65.5801C82.6523 63.8283 82.6523 62.1274 82.6523 60.3416Z" fill="#FF8B36" stroke="#FF8B36" stroke-width="0.5" stroke-miterlimit="10"/>
<path d="M64.9111 82.7755C63.9075 82.7755 62.8869 82.7925 61.8833 82.7755C60.1143 82.7415 58.9236 81.721 58.8556 79.9862C58.7705 77.8261 58.7705 75.6491 58.8556 73.472C58.9236 71.7542 60.1143 70.6827 61.8663 70.6487C63.9585 70.6146 66.0507 70.5976 68.1429 70.6487C69.946 70.6827 71.0856 71.8562 71.1197 73.6251C71.1537 75.6831 71.1537 77.7411 71.1197 79.7991C71.1027 81.6019 69.963 82.7245 68.16 82.7755C67.0713 82.7925 65.9997 82.7755 64.9111 82.7755ZM62.2746 74.0673C62.2746 75.8702 62.2746 77.605 62.2746 79.3228C64.1456 79.3228 65.9147 79.3228 67.6837 79.3228C67.6837 77.537 67.6837 75.8362 67.6837 74.0673C65.8806 74.0673 64.1286 74.0673 62.2746 74.0673Z" fill="#FF8B36" stroke="#FF8B36" stroke-width="0.5" stroke-miterlimit="10"/>
<path d="M79.9137 82.7756C78.859 82.7756 77.8214 82.7926 76.7668 82.7756C74.9638 82.7245 73.8071 81.602 73.7901 79.8331C73.7561 77.7751 73.7561 75.7171 73.7901 73.6592C73.8071 71.8733 74.9468 70.6997 76.7328 70.6657C78.8591 70.6147 81.0023 70.6147 83.1285 70.6657C84.8635 70.7167 86.0032 71.8223 86.0712 73.5741C86.1392 75.6661 86.1392 77.7581 86.0712 79.8501C86.0202 81.67 84.8635 82.7415 83.0605 82.7756C82.0229 82.7926 80.9683 82.7756 79.9137 82.7756ZM77.2091 79.3399C79.0462 79.3399 80.8152 79.3399 82.6352 79.3399C82.6352 77.554 82.6352 75.8192 82.6352 74.0844C80.7812 74.0844 78.9951 74.0844 77.2091 74.0844C77.2091 75.8702 77.2091 77.571 77.2091 79.3399Z" fill="#FF8B36" stroke="#FF8B36" stroke-width="0.5" stroke-miterlimit="10"/>
<path d="M101.006 62.9948C101.006 64.0493 101.04 65.0868 101.006 66.1413C100.955 67.8081 99.8492 68.9816 98.1823 69.0157C95.971 69.0667 93.7597 69.0667 91.5655 69.0157C90.0005 68.9816 88.8438 67.9101 88.7758 66.3454C88.6737 64.1003 88.6737 61.8552 88.7758 59.6101C88.8438 57.9263 90.0345 56.9228 91.7525 56.9058C93.8448 56.8888 95.937 56.8888 98.0292 56.9058C99.8322 56.9228 100.955 58.0454 101.006 59.8482C101.04 60.8857 101.006 61.9403 101.006 62.9948ZM97.5529 65.614C97.5529 63.7771 97.5529 62.0423 97.5529 60.3245C95.7158 60.3245 93.9808 60.3245 92.1778 60.3245C92.1778 62.1103 92.1778 63.8452 92.1778 65.614C93.9808 65.614 95.7329 65.614 97.5529 65.614Z" fill="#FF8B36" stroke="#FF8B36" stroke-width="0.5" stroke-miterlimit="10"/>
<path d="M94.7803 82.7754C93.7257 82.7754 92.6881 82.7924 91.6335 82.7754C90.0005 82.7243 88.8269 81.7209 88.7588 80.0711C88.6738 77.826 88.6738 75.5809 88.7588 73.3358C88.8269 71.7711 89.9665 70.6995 91.5484 70.6655C93.7597 70.5975 95.971 70.5975 98.1653 70.6655C99.8833 70.7166 100.972 71.9071 100.989 73.659C101.023 75.717 101.023 77.7749 100.989 79.8329C100.955 81.6358 99.8322 82.7413 98.0121 82.7754C96.9405 82.7924 95.8689 82.7754 94.7803 82.7754ZM97.5529 79.3397C97.5529 77.5368 97.5529 75.802 97.5529 74.0502C95.7328 74.0502 93.9809 74.0502 92.1608 74.0502C92.1608 75.819 92.1608 77.5538 92.1608 79.3397C93.9639 79.3397 95.7158 79.3397 97.5529 79.3397Z" fill="#FF8B36" stroke="#FF8B36" stroke-width="0.5" stroke-miterlimit="10"/>
</svg>
