<svg width="461" height="354" viewBox="0 0 461 354" fill="none" xmlns="http://www.w3.org/2000/svg">
<g clip-path="url(#clip0_494_1516)">
<path d="M125.754 335.157C120.152 323.749 110.772 302.341 107.172 280.543C101.475 246.084 85.3805 243.849 79.0206 253.342C63.6599 276.299 94.2037 316.219 110.844 335.157H125.754Z" fill="#CDBFBC"/>
<path d="M98.9647 298.227C103.299 308.5 109.825 322.094 118.53 335.157H120.377C111.459 321.941 104.792 308.074 100.386 297.648C94.0024 282.529 90.8876 271.157 90.8521 271.038C90.7455 270.636 90.3191 270.388 89.9046 270.506C89.4901 270.613 89.2532 271.038 89.3598 271.44C89.3953 271.57 92.5457 283.013 98.9647 298.227Z" fill="#AF9F9D"/>
<path d="M120.223 335.157C106.876 321.231 84.0896 295.272 69.1552 266.203C45.1607 219.521 21.0951 223.694 16.3815 240.197C6.26733 275.554 53.8892 313.453 87.4886 335.157H120.223Z" fill="#E3D7D5"/>
<path d="M105.656 335.157H109.28C92.143 321.137 77.6468 305.793 67.3313 293.782C51.2481 275.069 41.5603 260.246 41.4537 260.092C41.1103 259.56 40.3878 259.406 39.8549 259.761C39.3219 260.104 39.168 260.825 39.5114 261.357C39.6062 261.51 49.365 276.441 65.543 295.26C75.5032 306.845 89.3243 321.527 105.656 335.157Z" fill="#CDBFBC"/>
<path d="M393.15 293.416C382.716 284.042 351.272 299.705 333.235 321.279L351.663 285.531C354.624 283.309 360.853 279.55 371.109 277.386C384.599 274.549 398.456 269.123 391.894 263.236C385.298 257.314 365.389 267.256 354.031 280.909L357.94 273.343C373.833 254.89 381.993 224.403 373.383 218.481C364.773 212.57 360.379 230.361 359.42 249.346C359.006 257.538 356.755 264.596 355.192 269.549L347.612 284.255C349.673 268.733 346.061 252.172 338.6 250.528C329.99 248.625 333.625 263.035 339.144 275.637C342.093 282.387 343.242 287.966 343.633 291.974L320.42 336.93H325.122L329.386 328.726C334.135 325.192 343.988 319.281 360.154 315.865C381.555 311.349 403.548 302.755 393.15 293.416Z" fill="#E3D7D5"/>
<path d="M214.47 354C294.086 354 358.627 348.559 358.627 341.848C358.627 335.136 294.086 329.695 214.47 329.695C134.855 329.695 70.3136 335.136 70.3136 341.848C70.3136 348.559 134.855 354 214.47 354Z" fill="#E3D7D5"/>
<path d="M136.139 311.55C135.156 311.55 134.362 310.758 134.362 309.777V281.512C134.362 281.039 134.552 280.59 134.883 280.259L149.604 265.565V250.103L134.267 234.794C133.936 234.463 133.746 234.014 133.746 233.541V200.418C133.746 199.437 134.54 198.645 135.523 198.645C136.506 198.645 137.299 199.437 137.299 200.418V232.808L152.636 248.117C152.968 248.448 153.157 248.897 153.157 249.37V266.298C153.157 266.771 152.968 267.22 152.636 267.551L137.915 282.245V309.777C137.915 310.758 137.122 311.55 136.139 311.55Z" fill="#FF5325"/>
<path d="M169.655 313.607C168.672 313.607 167.879 312.815 167.879 311.834V279.798C167.879 279.325 168.068 278.876 168.4 278.545L174.878 272.079V252.112C174.878 251.131 175.671 250.339 176.654 250.339C177.637 250.339 178.431 251.131 178.431 252.112V272.811C178.431 273.284 178.241 273.734 177.91 274.065L171.432 280.531V311.834C171.432 312.803 170.638 313.607 169.655 313.607Z" fill="#FF5325"/>
<path d="M205.067 313.607C204.084 313.607 203.29 312.815 203.29 311.834V239.074L187.835 223.647C187.503 223.316 187.313 222.867 187.313 222.394V198.266C187.313 197.285 188.107 196.493 189.09 196.493C190.073 196.493 190.866 197.285 190.866 198.266V221.661L206.322 237.088C206.654 237.419 206.843 237.868 206.843 238.341V311.834C206.843 312.803 206.038 313.607 205.067 313.607Z" fill="#FF5325"/>
<path d="M240.277 316.29C239.294 316.29 238.5 315.498 238.5 314.517V294.184L226.621 282.328C226.29 281.997 226.1 281.547 226.1 281.075V247.077C226.1 246.604 226.29 246.155 226.621 245.824L237.861 234.605V213.421C237.861 212.44 238.654 211.648 239.637 211.648C240.62 211.648 241.414 212.44 241.414 213.421V235.338C241.414 235.811 241.224 236.26 240.892 236.591L229.653 247.809V280.342L241.532 292.198C241.864 292.529 242.053 292.979 242.053 293.451V314.517C242.053 315.498 241.26 316.29 240.277 316.29Z" fill="#FF5325"/>
<path d="M265.432 317.401C264.449 317.401 263.655 316.609 263.655 315.628V305.486C263.655 305.013 263.845 304.563 264.176 304.232L275.676 292.754V275.046L264.804 264.194C264.472 263.863 264.283 263.414 264.283 262.941V232.643C264.283 231.662 265.076 230.87 266.059 230.87C267.042 230.87 267.836 231.662 267.836 232.643V262.208L278.708 273.06C279.04 273.391 279.229 273.84 279.229 274.313V293.499C279.229 293.972 279.04 294.421 278.708 294.752L267.208 306.23V315.628C267.22 316.609 266.415 317.401 265.432 317.401Z" fill="#FF5325"/>
<path d="M287.2 311.55C286.217 311.55 285.423 310.758 285.423 309.777V265.482L278.211 258.283C277.879 257.952 277.69 257.503 277.69 257.03V248.353C277.69 247.88 277.879 247.431 278.211 247.1L284.476 240.847V217.665C284.476 216.684 285.269 215.892 286.252 215.892C287.235 215.892 288.029 216.684 288.029 217.665V241.58C288.029 242.053 287.839 242.502 287.508 242.833L281.243 249.086V256.297L288.455 263.496C288.787 263.827 288.976 264.277 288.976 264.749V309.777C288.976 310.758 288.183 311.55 287.2 311.55Z" fill="#FF5325"/>
<path d="M143.446 197.959C143.446 202.321 139.905 205.856 135.523 205.856C131.153 205.856 127.611 202.321 127.611 197.959C127.611 193.597 131.153 190.063 135.523 190.063C139.905 190.051 143.446 193.597 143.446 197.959Z" fill="#003F82"/>
<path d="M184.578 247.679C184.578 252.042 181.036 255.588 176.666 255.588C172.296 255.588 168.755 252.053 168.755 247.679C168.755 243.317 172.296 239.783 176.666 239.783C181.025 239.771 184.578 243.317 184.578 247.679Z" fill="#003F82"/>
<path d="M197.001 195.524C197.001 199.886 193.46 203.432 189.09 203.432C184.72 203.432 181.179 199.898 181.179 195.524C181.179 191.162 184.72 187.627 189.09 187.627C193.46 187.616 197.001 191.15 197.001 195.524Z" fill="#003F82"/>
<path d="M247.56 211.329C247.56 215.691 244.019 219.226 239.637 219.226C235.267 219.226 231.714 215.691 231.714 211.329C231.714 206.967 235.255 203.421 239.637 203.421C244.019 203.421 247.56 206.955 247.56 211.329Z" fill="#003F82"/>
<path d="M273.983 230.29C273.983 234.652 270.442 238.187 266.071 238.187C261.701 238.187 258.148 234.652 258.148 230.29C258.148 225.928 261.689 222.394 266.071 222.394C270.43 222.394 273.983 225.928 273.983 230.29Z" fill="#003F82"/>
<path d="M294.164 213.433C294.164 217.795 290.622 221.33 286.252 221.33C281.882 221.33 278.341 217.795 278.341 213.433C278.341 209.071 281.882 205.537 286.252 205.537C290.622 205.525 294.164 209.071 294.164 213.433Z" fill="#003F82"/>
<path d="M339.559 323.998V335.062C339.559 340.276 335.283 344.543 330.061 344.543H98.8796C93.6567 344.543 89.3813 340.276 89.3813 335.062V323.998C89.3813 318.784 93.6567 314.517 98.8796 314.517H330.061C335.283 314.517 339.559 318.784 339.559 323.998Z" fill="#003F82"/>
<path d="M339.559 329.14V335.062C339.559 340.276 335.283 344.543 330.061 344.543H98.8796C93.6567 344.543 89.3813 340.276 89.3813 335.062V329.14H339.559Z" fill="#002029"/>
<path d="M307.819 320.049H122.495C116.005 320.049 110.747 314.801 110.747 308.323V105.351C110.747 47.8526 156.924 0.331029 214.541 3.33623e-05C272.384 -0.330962 319.556 46.5404 319.556 104.205V308.323C319.556 314.801 314.309 320.049 307.819 320.049ZM127.244 309.777H303.07C306.492 309.777 309.276 307.01 309.276 303.582V105.245C309.276 53.4086 267.646 10.5801 215.714 10.2727C163.568 9.97719 121.05 52.2264 121.05 104.205V303.582C121.05 307.01 123.822 309.777 127.244 309.777Z" fill="#003F82"/>
<path d="M289.924 108.307V132.883H153.939C147.627 132.883 142.498 127.764 142.498 121.464V113.567C142.498 113.106 142.498 112.657 142.51 112.219C142.534 110.943 142.581 109.666 142.688 108.413C142.866 106.061 143.162 103.732 143.588 101.427C143.813 100.15 144.085 98.8732 144.382 97.6202C145.293 93.7783 146.561 90.0664 148.1 86.52C148.657 85.2315 149.249 83.9666 149.889 82.7135C152.234 78.0678 155.135 73.7412 158.451 69.7929C159.553 68.4807 160.702 67.204 161.921 65.9864C163.923 63.9177 166.067 61.979 168.329 60.1822C170.188 58.7163 172.118 57.3451 174.12 56.0684C176.311 54.6735 178.585 53.4086 180.93 52.2619C186.65 49.4839 192.832 47.4861 199.311 46.3867C200.566 46.174 201.845 46.0085 203.124 45.8548C205.623 45.5947 208.181 45.441 210.751 45.441H226.941C228.777 45.441 230.565 45.512 232.353 45.6893C233.633 45.7839 234.888 45.9139 236.143 46.103C250.865 48.2545 263.928 55.5128 273.473 65.9982C274.622 67.2158 275.688 68.4925 276.695 69.8047C279.063 72.8428 281.16 76.1054 282.924 79.5454C283.576 80.7985 284.18 82.0634 284.736 83.3519C287.448 89.5935 289.178 96.3671 289.71 103.484C289.805 104.737 289.864 106.013 289.888 107.29C289.924 107.621 289.924 107.964 289.924 108.307Z" fill="#FF8B36"/>
<path d="M289.936 132.883C289.936 136.536 288.455 139.243 286.027 142.612C285.932 142.754 285.814 142.907 285.707 143.073L273.094 155.663C266.995 161.739 258.728 165.167 250.118 165.167C243.676 165.167 239.069 163.406 235.184 160.746C231.299 158.086 228.125 154.575 224.608 151.041L223.957 150.39H210.81C204.747 150.39 199.37 147.293 196.22 142.6C194.348 139.81 193.259 136.477 193.259 132.871H289.936V132.883Z" fill="#FF5325"/>
<path d="M289.936 132.883C289.936 136.536 288.455 139.243 286.027 142.612C285.932 142.754 285.814 142.907 285.707 143.073L273.094 155.663C266.995 161.739 258.728 165.167 250.118 165.167C243.676 165.167 239.069 163.406 235.184 160.746C231.299 158.086 228.125 154.575 224.608 151.041L223.957 150.39H210.81C204.747 150.39 199.37 147.293 196.22 142.6C194.348 139.81 193.259 136.477 193.259 132.871H289.936V132.883Z" fill="#FF8B36"/>
<path d="M278.353 150.402L273.071 155.674C266.983 161.751 258.717 165.179 250.095 165.179C243.652 165.179 239.045 163.417 235.16 160.769C231.276 158.11 228.102 154.599 224.572 151.064L223.921 150.414H278.353V150.402Z" fill="#003F82"/>
<path d="M164.906 121.074H161.092C161.092 116.18 157.113 112.208 152.21 112.208H142.522C142.546 110.931 142.593 109.654 142.688 108.401H152.198C159.197 108.401 164.906 114.087 164.906 121.074Z" fill="#003F82"/>
<path d="M182.612 79.5217C182.612 82.3825 182.055 85.1132 181.048 87.6075C180.515 88.9433 179.864 90.22 179.07 91.4139C175.186 97.431 168.388 101.403 160.69 101.403H143.588C143.813 100.126 144.085 98.8495 144.393 97.5965H160.702C170.697 97.5965 178.81 89.4871 178.81 79.5217H182.612Z" fill="#003F82"/>
<path d="M289.924 119.17V122.977H264.224C255.341 122.811 248.164 115.553 248.164 106.652H251.978C251.978 113.555 257.603 119.17 264.52 119.17H289.924Z" fill="#003F82"/>
<path d="M166.102 82.7017V86.5081H148.1C148.657 85.2078 149.249 83.9547 149.889 82.7017H166.102Z" fill="#003F82"/>
<path d="M276.718 69.7811H252.463C242.87 69.7811 235.054 77.5595 235.054 87.1347H231.24C231.24 83.4228 232.211 79.9355 233.905 76.8975C234.592 75.6562 235.397 74.4977 236.321 73.4338C240.194 68.8708 245.985 65.9746 252.452 65.9746H273.485C274.634 67.1922 275.7 68.4689 276.718 69.7811Z" fill="#003F82"/>
<path d="M284.76 83.3282H257.118V79.5217H282.96C283.599 80.7866 284.203 82.0397 284.76 83.3282Z" fill="#003F82"/>
<path d="M203.16 104.748V108.555C197.688 108.555 193.247 112.988 193.247 118.449V132.871H189.433V118.449C189.433 118.319 189.433 118.166 189.457 118.036C189.481 116.723 189.706 115.47 190.085 114.288C191.849 108.756 197.037 104.748 203.16 104.748Z" fill="#003F82"/>
<path d="M214.802 67.3813V71.1877C206.263 71.1877 199.323 64.2605 199.323 55.7373V46.3749C200.578 46.1621 201.857 45.9966 203.136 45.8429V55.7373C203.136 62.1681 208.359 67.3813 214.802 67.3813Z" fill="#003F82"/>
<path d="M236.155 46.0912C235.409 53.9169 228.801 60.064 220.747 60.064V56.2575C226.835 56.2575 231.821 51.6 232.353 45.6775C233.644 45.7602 234.9 45.9021 236.155 46.0912Z" fill="#003F82"/>
<path d="M197.416 82.8554H193.602C193.602 75.6444 187.716 69.7811 180.48 69.7811H158.451C159.553 68.4689 160.702 67.1922 161.921 65.9746H180.48C189.801 65.9746 197.416 73.552 197.416 82.8554Z" fill="#003F82"/>
<path d="M237.197 77.2639H236.854C229.949 77.2639 224.336 71.6606 224.336 64.7688H228.149C228.149 69.5564 232.057 73.4574 236.854 73.4574H237.197V77.2639Z" fill="#003F82"/>
<path d="M191.53 118.225C185.584 118.225 180.74 113.39 180.74 107.455V100.776H184.554V107.455C184.554 111.297 187.681 114.418 191.53 114.418V118.225Z" fill="#003F82"/>
<path d="M231.963 150.402H228.149V129.892C228.149 127.138 225.899 124.892 223.139 124.892C218.272 124.892 214.316 120.944 214.316 116.085V108.555H218.13V116.085C218.13 118.839 220.38 121.085 223.139 121.085C228.007 121.085 231.963 125.034 231.963 129.892V150.402Z" fill="#003F82"/>
<path d="M230.056 140.91V137.103C234.959 137.103 238.95 133.119 238.95 128.225V126.169H242.764V128.225C242.764 135.212 237.067 140.91 230.056 140.91Z" fill="#003F82"/>
<path d="M225.84 105.375H222.026C222.026 97.6793 215.749 91.414 208.039 91.414H178.028V87.6075H208.039C217.857 87.6194 225.84 95.5869 225.84 105.375Z" fill="#003F82"/>
<path d="M235.149 97.7501H220.747V93.9437H235.149C240.75 93.9437 245.31 89.3925 245.31 83.801H249.124C249.124 91.4967 242.858 97.7501 235.149 97.7501Z" fill="#003F82"/>
<path d="M277.571 136.619C270.216 136.619 264.224 130.637 264.224 123.296V121.074H268.037V123.296C268.037 128.545 272.313 132.812 277.571 132.812V136.619Z" fill="#003F82"/>
<path d="M263.584 94.7476H260.244V90.9412H263.584C268.843 90.9412 273.118 86.6737 273.118 81.425H276.932C276.932 88.7779 270.939 94.7476 263.584 94.7476Z" fill="#003F82"/>
<path d="M289.912 107.278H270.572V103.472H289.734C289.829 104.725 289.888 106.001 289.912 107.278Z" fill="#003F82"/>
<path d="M192.821 61.9199H189.007C189.007 58.6809 186.378 56.0566 183.133 56.0566H174.132C176.323 54.6617 178.597 53.3968 180.942 52.2501H183.133C188.474 52.2501 192.821 56.5885 192.821 61.9199Z" fill="#003F82"/>
<path d="M153.714 132.871V143.936C153.714 145.012 154.602 145.863 155.68 145.827C155.692 145.827 155.704 145.827 155.716 145.827C156.722 145.78 157.528 144.953 157.528 143.948V132.883H153.714V132.871Z" fill="#003F82"/>
<path d="M161.021 132.871V143.936C161.021 145.012 161.91 145.863 162.987 145.827C162.999 145.827 163.011 145.827 163.023 145.827C164.03 145.78 164.835 144.953 164.835 143.948V132.883H161.021V132.871Z" fill="#003F82"/>
<path d="M168.341 132.871V143.936C168.341 145.012 169.229 145.863 170.307 145.827C170.318 145.827 170.33 145.827 170.342 145.827C171.349 145.78 172.154 144.953 172.154 143.948V132.883H168.341V132.871Z" fill="#003F82"/>
<path d="M175.648 132.871V143.936C175.648 145.012 176.536 145.863 177.614 145.827C177.626 145.827 177.638 145.827 177.649 145.827C178.656 145.78 179.461 144.953 179.461 143.948V132.883H175.648V132.871Z" fill="#003F82"/>
<path d="M182.967 132.871V143.936C182.967 145.012 183.855 145.863 184.933 145.827C184.945 145.827 184.957 145.827 184.968 145.827C185.975 145.78 186.781 144.953 186.781 143.948V132.883H182.967V132.871Z" fill="#003F82"/>
<path d="M402.352 351.541C434.742 351.541 461 348.429 461 344.59C461 340.751 434.742 337.639 402.352 337.639C369.962 337.639 343.704 340.751 343.704 344.59C343.704 348.429 369.962 351.541 402.352 351.541Z" fill="#E3D7D5"/>
<path d="M347.447 278.994H329.243C328.426 278.994 327.763 278.332 327.763 277.516C327.763 276.701 328.426 276.039 329.243 276.039H345.966V217.559C345.966 216.743 346.629 216.081 347.447 216.081H401.144C401.961 216.081 402.624 216.743 402.624 217.559V230.219C402.624 231.035 401.961 231.697 401.144 231.697C400.327 231.697 399.664 231.035 399.664 230.219V219.048H348.927V277.528C348.927 278.332 348.264 278.994 347.447 278.994Z" fill="#FF5325"/>
<path d="M319.556 283.12H325.359C328.367 283.12 330.795 280.684 330.795 277.694V277.327C330.795 274.325 328.355 271.901 325.359 271.901H319.556V283.12Z" fill="#FF8401"/>
<path d="M367.497 238.873V340.796C367.497 343.042 369.321 344.85 371.559 344.85H430.74C431.877 344.85 432.896 344.389 433.63 343.645C434.353 342.912 434.803 341.907 434.803 340.796V238.873C434.803 236.627 432.979 234.818 430.74 234.818H371.559C370.754 234.818 370.008 235.054 369.38 235.444C368.243 236.165 367.497 237.43 367.497 238.873Z" fill="#FF5325"/>
<path d="M385.937 254.465H425.458C426.998 254.465 428.253 253.212 428.253 251.675C428.253 250.138 426.998 248.885 425.458 248.885H385.937C384.398 248.885 383.142 250.138 383.142 251.675C383.142 253.224 384.386 254.465 385.937 254.465Z" fill="#FF8401"/>
<path d="M385.937 267.185H425.458C426.998 267.185 428.253 265.932 428.253 264.395C428.253 262.858 426.998 261.605 425.458 261.605H385.937C384.398 261.605 383.142 262.858 383.142 264.395C383.142 265.943 384.386 267.185 385.937 267.185Z" fill="#FF8401"/>
<path d="M385.937 279.904H425.458C426.998 279.904 428.253 278.651 428.253 277.115C428.253 275.578 426.998 274.325 425.458 274.325H385.937C384.398 274.325 383.142 275.578 383.142 277.115C383.142 278.651 384.386 279.904 385.937 279.904Z" fill="#FF8401"/>
<path d="M385.937 292.624H425.458C426.998 292.624 428.253 291.371 428.253 289.834C428.253 288.297 426.998 287.044 425.458 287.044H385.937C384.398 287.044 383.142 288.297 383.142 289.834C383.142 291.371 384.386 292.624 385.937 292.624Z" fill="#FF8401"/>
<path d="M385.937 305.344H425.458C426.998 305.344 428.253 304.091 428.253 302.554C428.253 301.017 426.998 299.764 425.458 299.764H385.937C384.398 299.764 383.142 301.017 383.142 302.554C383.142 304.091 384.386 305.344 385.937 305.344Z" fill="#FF8401"/>
<path d="M385.937 318.063H425.458C426.998 318.063 428.253 316.81 428.253 315.274C428.253 313.737 426.998 312.484 425.458 312.484H385.937C384.398 312.484 383.142 313.737 383.142 315.274C383.142 316.81 384.386 318.063 385.937 318.063Z" fill="#FF8401"/>
<path d="M385.937 330.783H425.458C426.998 330.783 428.253 329.53 428.253 327.993C428.253 326.456 426.998 325.203 425.458 325.203H385.937C384.398 325.203 383.142 326.456 383.142 327.993C383.142 329.53 384.386 330.783 385.937 330.783Z" fill="#FF8401"/>
<path d="M375.148 250.079C375.148 250.741 375.681 251.273 376.344 251.273C377.007 251.273 377.54 250.741 377.54 250.079C377.54 249.417 377.007 248.885 376.344 248.885C375.681 248.885 375.148 249.417 375.148 250.079Z" fill="#173953"/>
<path d="M375.148 253.271C375.148 253.933 375.681 254.465 376.344 254.465C377.007 254.465 377.54 253.933 377.54 253.271C377.54 252.609 377.007 252.077 376.344 252.077C375.681 252.077 375.148 252.609 375.148 253.271Z" fill="#FF8401"/>
<path d="M375.148 262.799C375.148 263.461 375.681 263.993 376.344 263.993C377.007 263.993 377.54 263.461 377.54 262.799C377.54 262.137 377.007 261.605 376.344 261.605C375.681 261.605 375.148 262.137 375.148 262.799Z" fill="white"/>
<path d="M375.148 265.991C375.148 266.653 375.681 267.185 376.344 267.185C377.007 267.185 377.54 266.653 377.54 265.991C377.54 265.329 377.007 264.797 376.344 264.797C375.681 264.797 375.148 265.329 375.148 265.991Z" fill="#FF8401"/>
<path d="M375.148 288.238C375.148 288.9 375.681 289.432 376.344 289.432C377.007 289.432 377.54 288.9 377.54 288.238C377.54 287.576 377.007 287.044 376.344 287.044C375.681 287.044 375.148 287.576 375.148 288.238Z" fill="white"/>
<path d="M375.148 291.43C375.148 292.092 375.681 292.624 376.344 292.624C377.007 292.624 377.54 292.092 377.54 291.43C377.54 290.768 377.007 290.236 376.344 290.236C375.681 290.236 375.148 290.768 375.148 291.43Z" fill="#FF8401"/>
<path d="M375.148 275.519C375.148 276.181 375.681 276.713 376.344 276.713C377.007 276.713 377.54 276.181 377.54 275.519C377.54 274.857 377.007 274.325 376.344 274.325C375.681 274.325 375.148 274.857 375.148 275.519Z" fill="#173953"/>
<path d="M375.148 278.71C375.148 279.372 375.681 279.904 376.344 279.904C377.007 279.904 377.54 279.372 377.54 278.71C377.54 278.048 377.007 277.516 376.344 277.516C375.681 277.516 375.148 278.048 375.148 278.71Z" fill="#FF8401"/>
<path d="M375.148 300.958C375.148 301.62 375.681 302.152 376.344 302.152C377.007 302.152 377.54 301.62 377.54 300.958C377.54 300.296 377.007 299.764 376.344 299.764C375.681 299.764 375.148 300.296 375.148 300.958Z" fill="#173953"/>
<path d="M375.148 304.15C375.148 304.812 375.681 305.344 376.344 305.344C377.007 305.344 377.54 304.812 377.54 304.15C377.54 303.488 377.007 302.956 376.344 302.956C375.681 302.956 375.148 303.488 375.148 304.15Z" fill="#FF8401"/>
<path d="M375.148 313.678C375.148 314.34 375.681 314.871 376.344 314.871C377.007 314.871 377.54 314.34 377.54 313.678C377.54 313.016 377.007 312.484 376.344 312.484C375.681 312.472 375.148 313.016 375.148 313.678Z" fill="white"/>
<path d="M375.148 316.869C375.148 317.531 375.681 318.063 376.344 318.063C377.007 318.063 377.54 317.531 377.54 316.869C377.54 316.207 377.007 315.675 376.344 315.675C375.681 315.675 375.148 316.207 375.148 316.869Z" fill="#FF8401"/>
<path d="M375.148 326.385C375.148 327.047 375.681 327.579 376.344 327.579C377.007 327.579 377.54 327.047 377.54 326.385C377.54 325.723 377.007 325.191 376.344 325.191C375.681 325.191 375.148 325.735 375.148 326.385Z" fill="#173953"/>
<path d="M375.148 329.589C375.148 330.251 375.681 330.783 376.344 330.783C377.007 330.783 377.54 330.251 377.54 329.589C377.54 328.927 377.007 328.395 376.344 328.395C375.681 328.383 375.148 328.927 375.148 329.589Z" fill="#FF8401"/>
<path d="M380.335 234.818H421.965C421.965 232.276 419.904 230.219 417.357 230.219H384.942C382.396 230.219 380.335 232.276 380.335 234.818Z" fill="#173953"/>
</g>
<defs>
<clipPath id="clip0_494_1516">
<rect width="461" height="354" fill="white"/>
</clipPath>
</defs>
</svg>
