<svg width="96" height="109" viewBox="0 0 96 109" fill="none" xmlns="http://www.w3.org/2000/svg">
<path d="M95.5941 108.31C64.0414 108.31 32.5686 108.31 1 108.31C1.41517 105.787 1.81435 103.344 2.22951 100.885C3.04388 96.0476 3.87422 91.1938 4.65665 86.356C5.96602 78.277 10.4211 72.8165 18.1815 70.1501C22.5248 68.6652 26.884 67.1963 31.2593 65.8072C32.3291 65.4719 32.888 65.0089 32.6644 63.8593C32.6325 63.6677 32.6964 63.4442 32.7123 63.1568C33.7982 63.1568 34.868 63.1568 36.0656 63.1568C35.842 67.819 37.838 72.0501 38.6524 76.7282C39.0037 76.361 39.2113 76.1534 39.4029 75.9139C41.335 73.5988 43.2512 71.2517 45.2312 68.9686C45.5346 68.6173 46.1414 68.3459 46.6364 68.3299C48.0415 68.266 49.6224 67.9467 50.788 68.4736C51.9218 68.9845 52.6244 70.4215 53.5026 71.4753C54.9238 73.1677 56.3289 74.8602 57.8778 76.7123C58.4846 74.3173 59.1074 72.1139 59.5864 69.8786C60.0654 67.6753 60.4008 65.44 60.8319 63.1089C61.6782 63.1089 62.748 63.1089 63.9137 63.1089C63.9137 63.8433 63.9137 64.5299 63.9137 65.2803C67.4107 66.4459 70.8598 67.5475 74.2609 68.745C76.8957 69.6711 79.6422 70.4694 82.1012 71.7627C87.8337 74.7963 90.8995 79.8097 91.9534 86.1484C93.1031 93.1736 94.3007 100.199 95.4664 107.224C95.5303 107.575 95.5622 107.911 95.5941 108.31ZM33.1435 68.8089C28.1455 70.4854 23.2593 72.0181 18.453 73.7744C12.9919 75.7702 9.63864 79.7299 8.39314 85.4139C7.94604 87.4736 7.65863 89.5492 7.30733 91.6249C6.57281 95.9837 5.85423 100.343 5.11971 104.781C9.14363 104.781 13.0877 104.781 17.1436 104.781C17.6705 99.5282 18.1975 94.3072 18.7404 89.0223C19.9699 89.1501 21.0398 89.2618 22.1894 89.3736C21.6785 94.5467 21.1675 99.624 20.6565 104.765C27.1236 104.765 33.4628 104.765 39.8021 104.765C39.85 104.574 39.882 104.43 39.8979 104.302C40.872 97.5325 41.7821 90.7467 42.868 83.9929C43.1873 81.9652 41.6704 81.0551 40.9358 79.5383C39.5786 81.1509 38.349 82.6198 37.0077 84.2324C35.7143 79.0114 34.4528 73.998 33.1435 68.8089ZM77.9176 89.0383C78.4605 94.3551 78.9874 99.5761 79.5144 104.781C83.6022 104.781 87.5143 104.781 91.4265 104.781C91.4584 104.653 91.4903 104.574 91.4903 104.51C90.4524 98.2829 89.5103 92.04 88.3606 85.8291C87.3067 80.1291 84.0652 76.0257 78.6202 73.9341C74.3567 72.3055 69.9975 70.9803 65.6702 69.5274C64.9836 69.3038 64.2969 69.0803 63.5145 68.8248C62.2211 73.966 60.9596 79.0114 59.6502 84.2165C58.277 82.5719 57.0475 81.103 55.7221 79.5223C55.1633 80.3526 54.6203 81.0391 54.2211 81.8055C53.9657 82.3165 53.7421 82.9711 53.806 83.5299C54.4128 88.224 55.0994 92.9182 55.7541 97.6123C56.0894 99.9913 56.4566 102.386 56.8079 104.749C63.259 104.749 69.5823 104.749 76.0014 104.749C75.4905 99.5761 74.9795 94.4829 74.4685 89.3577C75.6501 89.2619 76.688 89.166 77.9176 89.0383ZM43.2831 76.7442C44.3051 78.277 45.311 79.7459 46.2532 81.2627C46.4767 81.6139 46.6045 82.1089 46.5566 82.5081C45.7103 88.5913 44.816 94.6585 43.9538 100.726C43.7622 102.067 43.6025 103.392 43.4268 104.749C46.7801 104.749 49.9737 104.749 53.1992 104.749C53.1833 104.398 53.1833 104.158 53.1513 103.919C52.1453 96.8778 51.1234 89.8366 50.1493 82.7795C50.0695 82.2207 50.2451 81.5341 50.5326 81.0551C51.4108 79.5862 52.4008 78.1971 53.3748 76.7442C52.0655 75.1795 50.82 73.6627 49.5585 72.1618C49.1114 71.6349 47.6104 71.603 47.1633 72.1139C45.838 73.6307 44.5765 75.1795 43.2831 76.7442Z" fill="#FF8B36" stroke="#FF8B36" stroke-width="0.5" stroke-miterlimit="10"/>
<path d="M74.4525 26.1308C74.4525 27.7434 74.4205 29.3719 74.4844 30.9845C74.5004 31.4156 74.708 31.9425 75.0114 32.2299C77.5024 34.6249 78.4764 37.4988 77.6141 40.8518C76.7199 44.2846 74.4045 46.3282 70.9874 47.2064C70.5722 47.3182 70.0772 47.7493 69.9495 48.1325C68.9116 51.1501 67.1551 53.7047 64.9196 55.94C62.9076 57.9518 60.8957 59.9795 58.8837 61.9753C57.239 63.6199 55.3069 64.7215 52.9277 64.7535C49.8778 64.8014 46.812 64.8014 43.7621 64.7535C41.5425 64.7215 39.6743 63.7955 38.1094 62.2787C35.6344 59.8358 33.1753 57.377 30.7642 54.8703C28.9279 52.9703 27.6185 50.7509 26.8041 48.2442C26.5806 47.5577 26.2133 47.2862 25.5107 47.1106C22.1095 46.2963 19.874 44.1728 19.0277 40.7719C18.2134 37.5467 19.1076 34.7207 21.5028 32.4215C22.0137 31.9425 22.2054 31.4795 22.2054 30.7929C22.1575 26.961 22.0776 23.1291 23.2273 19.4089C26.0377 10.324 31.9937 4.27275 41.0795 1.49459C45.6144 0.105517 50.293 -0.165905 54.8917 1.23914C60.4486 2.94754 64.3607 6.53997 66.724 11.8568C66.8996 12.2719 67.3467 12.719 67.7619 12.8307C71.8178 13.9484 74.3567 17.1896 74.4525 21.4845C74.4844 23.0333 74.4525 24.582 74.4525 26.1308ZM67.6182 33.4114C62.5564 32.6131 59.0434 30.0266 56.6322 25.8274C56.265 26.0988 56.0254 26.2904 55.77 26.482C51.6343 29.8509 46.9397 32.1661 41.6703 32.9165C38.0456 33.4274 34.325 33.3316 30.6524 33.5072C30.1734 33.5232 29.6943 33.5072 29.2632 33.5072C29.2632 36.9719 29.1195 40.3089 29.2951 43.6299C29.4867 47.1904 31.0516 50.24 33.5426 52.7946C35.81 55.1417 38.1414 57.4409 40.4567 59.74C41.5585 60.8257 42.8838 61.3526 44.4487 61.3526C46.9397 61.3367 49.4307 61.3207 51.9217 61.3526C53.6782 61.3846 55.1312 60.7778 56.3608 59.5325C58.4845 57.393 60.6242 55.2535 62.7639 53.114C65.0793 50.7829 66.8038 48.0367 67.1391 44.7795C67.5383 41.0434 67.4905 37.2434 67.6182 33.4114ZM70.8756 29.9946C70.8916 29.9308 70.9236 29.819 70.9236 29.7232C70.9236 27.0249 70.9555 24.3106 70.9236 21.6123C70.8916 18.2753 68.8158 16.1677 65.4625 16.0879C64.6641 16.0719 64.3288 15.8803 64.0892 15.082C62.5563 9.92486 59.2669 6.25258 54.1093 4.68787C49.0634 3.13913 43.9856 3.66602 39.2112 5.86938C31.3869 9.46182 26.9159 15.6408 25.8141 24.1828C25.5586 26.1307 25.7822 28.1425 25.7822 30.0106C28.4169 30.0106 30.9718 30.0266 33.5266 30.0106C35.315 29.9946 37.1194 30.0585 38.8919 29.8669C45.79 29.1165 51.6183 26.1467 56.4406 21.1812C56.7121 20.8938 57.0155 20.6223 57.4626 20.2072C60.225 25.9232 63.6102 30.6333 70.8756 29.9946ZM25.6544 43.4862C25.6544 40.3249 25.6544 37.1795 25.6544 33.9862C23.6744 34.4971 22.2213 36.5249 22.2054 38.6644C22.1734 40.8837 23.6584 42.9434 25.6544 43.4862ZM70.9715 43.4383C72.8557 43.103 74.4365 40.9316 74.4525 38.7123C74.4684 36.3492 72.5363 34.082 70.9715 34.0341C70.9715 37.1795 70.9715 40.3089 70.9715 43.4383Z" fill="#FF8B36" stroke="#FF8B36" stroke-width="0.5" stroke-miterlimit="10"/>
</svg>
