<svg width="259" height="261" viewBox="0 0 259 261" fill="none" xmlns="http://www.w3.org/2000/svg">
<path d="M130.74 0.00674283C59.4596 -0.723257 0.199707 57.9167 0.199707 129.197C0.199707 184.717 35.2297 232.057 84.3897 250.337V205.367C58.3597 189.957 40.9197 161.587 40.9297 129.147C40.9597 81.0267 80.0197 41.4067 128.14 40.7367C177.58 40.0467 217.87 79.9167 217.87 129.197C217.87 161.617 200.43 189.967 174.41 205.367V250.337C223.57 232.057 258.6 184.727 258.6 129.197C258.61 58.2867 201.48 0.726743 130.74 0.00674283Z" fill="#E07185"/>
<path d="M91.3896 252.267V189.547C91.3896 185.127 94.9696 181.547 99.3896 181.547H159.42C163.84 181.547 167.42 185.127 167.42 189.547V252.267C167.42 256.687 163.84 260.267 159.42 260.267H99.3896C94.9696 260.267 91.3896 256.687 91.3896 252.267Z" fill="#E07185"/>
<path d="M103.419 96.4768V69.7968C103.419 69.4368 103.659 69.1968 104.019 69.1968H106.649C107.009 69.1968 107.249 69.4368 107.249 69.7968V96.4768C107.249 96.8368 107.009 97.0768 106.649 97.0768H104.019C103.659 97.0768 103.419 96.8368 103.419 96.4768Z" fill="black"/>
<path d="M112.499 89.627V88.667C112.499 88.307 112.739 88.067 113.099 88.067H115.649C116.009 88.067 116.249 88.307 116.249 88.667V89.427C116.249 92.057 118.679 94.087 122.659 94.087C126.439 94.087 128.199 92.297 128.199 89.907C128.199 87.397 126.049 86.287 121.389 84.407C116.849 82.657 112.869 81.057 112.869 76.207C112.869 71.587 116.409 68.877 121.949 68.877C127.919 68.877 131.789 72.067 131.789 76.807V77.407C131.789 77.767 131.549 78.007 131.189 78.007H128.599C128.239 78.007 127.999 77.807 127.999 77.487V76.997C127.999 74.327 125.809 72.177 121.789 72.177C118.479 72.177 116.609 73.567 116.609 76.117C116.609 78.787 118.679 79.657 123.379 81.457C127.799 83.167 132.019 84.917 132.019 89.777C132.019 94.317 128.399 97.387 122.379 97.387C116.359 97.387 112.499 94.327 112.499 89.627Z" fill="black"/>
<path d="M136.429 87.877V78.397C136.429 72.707 140.369 68.877 146.269 68.877C152.199 68.877 156.149 72.697 156.149 78.397V87.877C156.149 93.607 152.209 97.437 146.269 97.437C140.379 97.427 136.429 93.607 136.429 87.877ZM152.329 88.037V78.357C152.329 74.657 149.899 72.187 146.279 72.187C142.699 72.187 140.269 74.657 140.269 78.357V88.037C140.269 91.697 142.699 94.127 146.279 94.127C149.899 94.127 152.329 91.697 152.329 88.037Z" fill="black"/>
<path d="M103.419 96.4768V69.7968C103.419 69.4368 103.659 69.1968 104.019 69.1968H106.649C107.009 69.1968 107.249 69.4368 107.249 69.7968V96.4768C107.249 96.8368 107.009 97.0768 106.649 97.0768H104.019C103.659 97.0768 103.419 96.8368 103.419 96.4768Z" fill="#2E343D"/>
<path d="M112.499 89.627V88.667C112.499 88.307 112.739 88.067 113.099 88.067H115.649C116.009 88.067 116.249 88.307 116.249 88.667V89.427C116.249 92.057 118.679 94.087 122.659 94.087C126.439 94.087 128.199 92.297 128.199 89.907C128.199 87.397 126.049 86.287 121.389 84.407C116.849 82.657 112.869 81.057 112.869 76.207C112.869 71.587 116.409 68.877 121.949 68.877C127.919 68.877 131.789 72.067 131.789 76.807V77.407C131.789 77.767 131.549 78.007 131.189 78.007H128.599C128.239 78.007 127.999 77.807 127.999 77.487V76.997C127.999 74.327 125.809 72.177 121.789 72.177C118.479 72.177 116.609 73.567 116.609 76.117C116.609 78.787 118.679 79.657 123.379 81.457C127.799 83.167 132.019 84.917 132.019 89.777C132.019 94.317 128.399 97.387 122.379 97.387C116.359 97.387 112.499 94.327 112.499 89.627Z" fill="#2E343D"/>
<path d="M136.429 87.877V78.397C136.429 72.707 140.369 68.877 146.269 68.877C152.199 68.877 156.149 72.697 156.149 78.397V87.877C156.149 93.607 152.209 97.437 146.269 97.437C140.379 97.427 136.429 93.607 136.429 87.877ZM152.329 88.037V78.357C152.329 74.657 149.899 72.187 146.279 72.187C142.699 72.187 140.269 74.657 140.269 78.357V88.037C140.269 91.697 142.699 94.127 146.279 94.127C149.899 94.127 152.329 91.697 152.329 88.037Z" fill="#2E343D"/>
<path d="M62.1795 145.467V140.847C62.1795 140.407 62.3395 140.077 62.6695 139.697C67.0695 135.297 70.9695 130.737 74.6595 126.777C77.6295 123.477 79.6595 120.567 79.6595 118.527C79.6595 115.947 77.6795 114.127 74.7095 114.127C71.7395 114.127 69.7595 115.937 69.7595 118.637V119.737C69.7595 120.337 69.4295 120.677 68.8295 120.677H62.8895C62.2895 120.677 61.9595 120.347 61.9595 119.737V117.427C62.2895 111.327 67.6795 107.477 74.7195 107.477C82.6895 107.477 87.5295 112.367 87.5295 118.367C87.5295 121.557 85.8295 124.747 82.9095 128.317C80.1095 131.777 76.5295 135.357 72.7395 139.367C72.5195 139.527 72.6295 139.757 72.8995 139.757H87.3095C87.9095 139.757 88.2495 140.087 88.2495 140.687V145.467C88.2495 146.067 87.9195 146.397 87.3095 146.397H63.1095C62.5095 146.397 62.1795 146.067 62.1795 145.467Z" fill="#2E343D"/>
<path d="M116.59 120.567V137.557C116.59 143.767 111.4 147.837 103.89 147.837C96.4895 147.837 91.4695 143.767 91.4695 137.727V136.427C91.4695 135.807 91.8095 135.467 92.4295 135.467H98.4695C99.0895 135.467 99.4295 135.697 99.4295 136.027V136.647C99.4295 139.127 101.24 140.997 103.89 140.997C106.66 140.997 108.629 139.137 108.629 136.477V131.287C108.629 131.007 108.46 130.887 108.23 131.117C106.42 132.587 104.28 133.037 102.13 133.037C97.6695 133.037 93.8895 130.947 91.8495 126.997C90.8895 125.187 90.4995 122.987 90.4995 120.507C90.4995 118.247 90.8995 116.277 91.5695 114.637C93.4895 110.237 97.7795 107.467 103.479 107.467C109.299 107.467 113.7 110.287 115.56 115.037C116.25 116.667 116.59 118.587 116.59 120.567ZM108.57 120.287C108.57 118.987 108.34 117.807 107.84 116.847C107.05 115.267 105.639 114.367 103.549 114.367C101.459 114.367 100.11 115.327 99.3195 116.847C98.7595 117.807 98.4695 119.047 98.4695 120.407C98.4695 121.707 98.7495 123.117 99.3695 124.137C100.27 125.607 101.63 126.397 103.49 126.397C105.52 126.397 106.93 125.607 107.72 124.087C108.35 122.997 108.57 121.527 108.57 120.287Z" fill="#2E343D"/>
<path d="M147.02 120.567V137.557C147.02 143.767 141.83 147.837 134.32 147.837C126.92 147.837 121.9 143.767 121.9 137.727V136.427C121.9 135.807 122.24 135.467 122.86 135.467H128.9C129.52 135.467 129.86 135.697 129.86 136.027V136.647C129.86 139.127 131.67 140.997 134.32 140.997C137.09 140.997 139.06 139.137 139.06 136.477V131.287C139.06 131.007 138.89 130.887 138.66 131.117C136.85 132.587 134.71 133.037 132.56 133.037C128.1 133.037 124.32 130.947 122.28 126.997C121.32 125.187 120.93 122.987 120.93 120.507C120.93 118.247 121.33 116.277 122 114.637C123.92 110.237 128.21 107.467 133.91 107.467C139.72 107.467 144.13 110.287 145.99 115.037C146.68 116.667 147.02 118.587 147.02 120.567ZM139 120.287C139 118.987 138.77 117.807 138.27 116.847C137.48 115.267 136.07 114.367 133.98 114.367C131.89 114.367 130.54 115.327 129.75 116.847C129.19 117.807 128.9 119.047 128.9 120.407C128.9 121.707 129.18 123.117 129.8 124.137C130.7 125.607 132.06 126.397 133.92 126.397C135.95 126.397 137.36 125.607 138.15 124.087C138.77 122.997 139 121.527 139 120.287Z" fill="#2E343D"/>
<path d="M177.44 120.567V137.557C177.44 143.767 172.25 147.837 164.74 147.837C157.34 147.837 152.32 143.767 152.32 137.727V136.427C152.32 135.807 152.66 135.467 153.28 135.467H159.32C159.94 135.467 160.28 135.697 160.28 136.027V136.647C160.28 139.127 162.09 140.997 164.74 140.997C167.51 140.997 169.48 139.137 169.48 136.477V131.287C169.48 131.007 169.31 130.887 169.08 131.117C167.27 132.587 165.13 133.037 162.98 133.037C158.52 133.037 154.74 130.947 152.7 126.997C151.74 125.187 151.35 122.987 151.35 120.507C151.35 118.247 151.74 116.277 152.42 114.637C154.34 110.237 158.63 107.467 164.33 107.467C170.15 107.467 174.55 110.287 176.41 115.037C177.1 116.667 177.44 118.587 177.44 120.567ZM169.43 120.287C169.43 118.987 169.2 117.807 168.7 116.847C167.91 115.267 166.5 114.367 164.41 114.367C162.32 114.367 160.97 115.327 160.18 116.847C159.62 117.807 159.33 119.047 159.33 120.407C159.33 121.707 159.61 123.117 160.23 124.137C161.13 125.607 162.49 126.397 164.35 126.397C166.38 126.397 167.79 125.607 168.58 124.087C169.2 122.997 169.43 121.527 169.43 120.287Z" fill="#2E343D"/>
<path d="M205.429 135.117C205.429 137.317 205.039 139.027 204.439 140.627C202.619 145.257 198.319 148.117 192.649 148.117C186.979 148.117 182.569 145.087 180.749 140.347C180.199 138.967 179.979 137.427 179.869 135.997C179.869 135.387 180.199 135.057 180.809 135.057H186.759C187.309 135.057 187.699 135.387 187.749 135.997C187.809 136.827 188.029 137.757 188.299 138.417C188.959 140.287 190.499 141.447 192.599 141.447C194.639 141.447 196.069 140.507 196.839 138.747C197.339 137.697 197.609 136.267 197.609 134.887C197.609 133.237 197.279 131.797 196.729 130.647C195.959 128.997 194.579 128.057 192.539 128.057C191.769 128.057 190.889 128.497 189.999 129.107C189.499 129.437 189.009 129.327 188.679 128.887L185.759 124.977C185.429 124.477 185.429 124.037 185.869 123.657L194.469 116.167C194.689 116.007 194.579 115.777 194.299 115.777H181.569C180.959 115.777 180.629 115.447 180.629 114.837V110.047C180.629 109.437 180.959 109.107 181.569 109.107H203.999C204.609 109.107 204.939 109.437 204.939 110.047V115.447C204.939 115.887 204.769 116.277 204.439 116.607L197.219 123.167C196.999 123.387 197.109 123.557 197.439 123.607C200.859 124.267 203.059 126.417 204.329 129.287C205.049 130.927 205.429 132.917 205.429 135.117Z" fill="#2E343D"/>
<path d="M125.09 241.447C123.74 241.447 122.69 240.357 122.02 239.537C116.44 232.727 112.57 230.437 110.25 229.077C108.5 228.047 106.05 227.237 106.55 225.127C106.65 224.717 106.7 224.307 106.81 223.937C107.58 221.377 109.26 218.797 111.42 219.027C112.32 219.127 113.52 219.517 114.89 220.227C119.18 222.457 121.2 225.147 122.71 227.067C123.74 225.337 125.89 222.057 129.9 216.987C139.65 204.687 149.26 199.527 151.09 198.617C151.37 198.477 151.69 198.387 152.01 198.377H152.16C153.14 198.377 153.12 198.967 153.5 199.887C153.87 200.797 154.55 201.827 153.84 202.507C151.82 204.487 148.2 208.337 142.47 215.427C136.76 222.487 133.49 229.077 131.1 233.887C128.68 238.757 128.41 241.447 126.15 241.447H125.09Z" fill="white"/>
<path d="M53.9797 195.797L45.2997 202.867L43.7397 200.957L50.6898 195.297L47.1597 190.967L48.8997 189.557L53.9797 195.797Z" fill="white"/>
<path d="M47.4397 187.517L38.0397 193.607L33.4497 186.517L35.2897 185.327L38.5497 190.367L40.4597 189.137L37.5897 184.707L39.4297 183.517L42.2997 187.947L44.2697 186.667L40.9697 181.567L42.8097 180.377L47.4397 187.517Z" fill="white"/>
<path d="M37.7498 170.427L35.9398 172.447L38.0098 176.707L40.7198 176.527L41.8198 178.787L29.5698 179.407L28.5698 177.367L36.6098 168.117L37.7498 170.427ZM31.7498 177.117L35.6698 176.867L34.3698 174.187L31.7498 177.117Z" fill="white"/>
<path d="M33.6195 159.467L30.9995 162.887L31.6195 164.717L35.0095 163.567L35.7995 165.897L25.1895 169.497L23.5395 164.647C22.6895 162.147 23.4995 160.197 25.6795 159.457L25.7095 159.447C27.4195 158.867 28.8095 159.427 29.7695 160.607L32.6795 156.727L33.6195 159.467ZM26.6195 161.787C25.6195 162.127 25.3395 162.997 25.7295 164.137L26.5195 166.457L29.5595 165.427L28.7595 163.067C28.3695 161.927 27.5495 161.487 26.6495 161.787H26.6195Z" fill="white"/>
<path d="M30.4896 146.607L24.5896 153.347L31.5696 151.927L32.0596 154.307L21.0797 156.537L20.6296 154.307L26.3396 147.787L19.5797 149.157L19.0996 146.777L30.0797 144.547L30.4896 146.607Z" fill="white"/>
<path d="M29.7198 141.077L18.5798 142.247L18.3198 139.797L29.4598 138.627L29.7198 141.077Z" fill="white"/>
<path d="M29.0098 127.287L21.9398 132.777L29.0598 132.707L29.0798 135.137L17.8698 135.247L17.8498 132.977L24.6998 127.657L17.7998 127.727L17.7798 125.297L28.9898 125.187L29.0098 127.287Z" fill="white"/>
<path d="M29.9996 116.577C29.5896 120.037 26.8696 122.137 23.5796 121.737H23.5496C20.3896 121.357 18.0896 118.587 18.4896 115.227C18.7296 113.227 19.4095 112.087 20.5295 111.037L22.1996 112.797C21.3796 113.567 20.8795 114.287 20.7295 115.567C20.5195 117.347 21.9196 118.947 23.8096 119.167H23.8395C25.8695 119.407 27.5295 118.187 27.7695 116.217C27.8795 115.327 27.7496 114.507 27.3796 113.837L25.7895 113.647L25.4996 116.107L23.3896 115.857L23.9695 111.027L28.7996 111.607C29.6296 112.877 30.2396 114.547 29.9996 116.577Z" fill="white"/>
<path d="M33.58 99.6269C33.09 101.247 32.02 102.717 30.49 103.657L29.24 101.757C30.33 101.037 31.14 100.177 31.51 98.9469C31.8 97.9769 31.6 97.2869 30.97 97.0969L30.94 97.0869C30.34 96.9069 29.93 97.1769 28.92 98.8369C27.71 100.827 26.7 102.047 24.57 101.397L24.54 101.387C22.59 100.797 21.78 98.8469 22.44 96.6569C22.91 95.0969 23.81 93.9069 25.01 93.0869L26.42 94.8469C25.47 95.5969 24.79 96.4069 24.52 97.3169C24.25 98.2169 24.52 98.8169 25.04 98.9769L25.07 98.9869C25.78 99.1969 26.14 98.8069 27.18 97.0969C28.41 95.0969 29.56 94.1069 31.43 94.6669L31.46 94.6769C33.57 95.3269 34.28 97.3169 33.58 99.6269Z" fill="white"/>
<path d="M35.59 93.0267L25.29 88.6167L28.6201 80.8467L30.6301 81.7067L28.27 87.2267L30.36 88.1267L32.4401 83.2767L34.4501 84.1367L32.3701 88.9867L34.53 89.9167L36.92 84.3267L38.9401 85.1867L35.59 93.0267Z" fill="white"/>
<path d="M43.5997 76.7566L39.2997 77.0566L38.3397 78.7366L41.4498 80.5166L40.2197 82.6566L30.5098 77.0766L33.0598 72.6366C34.3698 70.3466 36.3698 69.6666 38.3698 70.8166L38.3997 70.8366C39.9697 71.7366 40.4697 73.1466 40.2097 74.6466L45.0397 74.2666L43.5997 76.7566ZM37.2297 73.0466C36.3097 72.5166 35.4798 72.8866 34.8798 73.9266L33.6597 76.0466L36.4498 77.6466L37.6898 75.4866C38.2898 74.4466 38.0798 73.5266 37.2598 73.0666L37.2297 73.0466Z" fill="white"/>
<path d="M49.7795 67.8766L48.4795 69.6266L36.7295 66.5166L38.3595 64.3366L46.4395 66.7066L41.8595 59.6466L43.4495 57.5166L49.7795 67.8766Z" fill="white"/>
<path d="M54.1999 62.3466L45.8799 54.8466L47.5298 53.0166L55.8499 60.5166L54.1999 62.3466Z" fill="white"/>
<path d="M62.1898 54.4969C59.7698 56.7369 56.2398 56.5269 54.0598 54.1669L54.0398 54.1469C51.8798 51.8069 51.8698 48.2669 54.3998 45.9269C55.9498 44.4969 57.3598 44.1469 58.8198 44.1969L58.8998 46.5869C57.7298 46.5969 56.7598 46.8469 55.9398 47.6069C54.5498 48.8869 54.6198 50.9669 55.9198 52.3769L55.9398 52.3969C57.2398 53.8069 59.3098 54.0769 60.7198 52.7769C61.6598 51.9069 61.8898 50.9969 61.9898 49.8169L64.2198 49.9169C64.1898 51.5969 63.7698 53.0269 62.1898 54.4969Z" fill="white"/>
<path d="M67.4796 49.6369L60.8896 40.5769L67.7196 35.6069L69.0096 37.3769L64.1596 40.9069L65.4996 42.7469L69.7696 39.6369L71.0596 41.4069L66.7896 44.5169L68.1696 46.4169L73.0896 42.8369L74.3796 44.6069L67.4796 49.6369Z" fill="white"/>
<path d="M80.3297 41.267C78.8597 42.107 77.0797 42.447 75.3197 42.077L75.7197 39.837C77.0097 40.057 78.1897 39.987 79.2997 39.357C80.1797 38.857 80.4997 38.207 80.1797 37.637L80.1597 37.607C79.8497 37.067 79.3597 36.977 77.4897 37.497C75.2497 38.117 73.6697 38.297 72.5697 36.367L72.5497 36.337C71.5397 34.577 72.2897 32.597 74.2697 31.457C75.6897 30.647 77.1497 30.397 78.5897 30.627L78.3997 32.877C77.1997 32.777 76.1397 32.897 75.3197 33.367C74.4997 33.837 74.2897 34.457 74.5597 34.927L74.5797 34.957C74.9497 35.597 75.4797 35.567 77.4097 35.037C79.6797 34.417 81.1897 34.497 82.1597 36.187L82.1797 36.217C83.2697 38.137 82.4197 40.067 80.3297 41.267Z" fill="white"/>
<path d="M96.5898 33.877C93.3298 35.027 90.1298 33.427 89.0698 30.417L89.0598 30.387C87.9998 27.387 89.4998 24.087 92.7598 22.937C96.0198 21.787 99.2198 23.387 100.28 26.397L100.29 26.427C101.35 29.427 99.8498 32.717 96.5898 33.877ZM97.8698 27.277C97.2298 25.467 95.3698 24.427 93.4998 25.087C91.6298 25.747 90.8498 27.687 91.4898 29.497L91.4998 29.527C92.1398 31.337 93.9998 32.377 95.8698 31.717C97.7398 31.057 98.5198 29.117 97.8798 27.307L97.8698 27.277Z" fill="white"/>
<path d="M109.47 30.2567C106.53 30.8667 104.38 29.6067 103.71 26.3767L102.4 20.1167L104.81 19.6167L106.1 25.8167C106.47 27.5967 107.56 28.3367 109.03 28.0367C110.5 27.7367 111.21 26.6467 110.85 24.9167L109.54 18.6367L111.95 18.1367L113.24 24.3167C113.94 27.6167 112.41 29.6367 109.47 30.2567Z" fill="white"/>
<path d="M121.61 19.3369L122.4 28.2269L119.95 28.4469L119.16 19.5569L115.77 19.8569L115.57 17.5969L124.81 16.7769L125.01 19.0369L121.61 19.3369Z" fill="white"/>
<path d="M132.09 28.1068C130.39 28.0768 128.69 27.4568 127.37 26.2368L128.85 24.5168C129.84 25.3668 130.89 25.9068 132.17 25.9268C133.18 25.9468 133.79 25.5568 133.8 24.8968V24.8668C133.81 24.2468 133.43 23.9168 131.57 23.4068C129.32 22.7968 127.88 22.1468 127.92 19.9268V19.8968C127.95 17.8668 129.61 16.5468 131.89 16.5868C133.52 16.6168 134.9 17.1468 136.02 18.0768L134.71 19.9068C133.73 19.2068 132.76 18.7668 131.82 18.7568C130.88 18.7368 130.37 19.1668 130.36 19.7068V19.7368C130.35 20.4768 130.82 20.7168 132.75 21.2468C135.01 21.8768 136.28 22.7068 136.25 24.6668V24.6968C136.22 26.9268 134.5 28.1468 132.09 28.1068Z" fill="white"/>
<path d="M139.22 28.3168L140.33 17.1768L142.78 17.4168L141.67 28.5568L139.22 28.3168Z" fill="white"/>
<path d="M149.42 29.7467L145.13 28.8967L147.3 17.9067L151.59 18.7567C155.04 19.4367 156.96 22.2767 156.35 25.3767L156.34 25.4067C155.74 28.4967 152.88 30.4267 149.42 29.7467ZM153.82 24.9067C154.2 22.9567 153.14 21.3267 151.16 20.9367L149.29 20.5667L147.98 27.1967L149.85 27.5667C151.83 27.9567 153.43 26.8867 153.81 24.9367L153.82 24.9067Z" fill="white"/>
<path d="M157.98 31.6966L161.47 21.0566L169.49 23.6866L168.81 25.7666L163.11 23.8966L162.4 26.0566L167.42 27.7066L166.74 29.7866L161.72 28.1366L160.99 30.3666L166.77 32.2666L166.09 34.3466L157.98 31.6966Z" fill="white"/>
<path d="M180.18 30.9069L179.07 33.0169L183.8 35.5069L182.76 37.4869L178.03 34.9969L176.01 38.8369L173.83 37.6869L179.04 27.7769L186.59 31.7469L185.55 33.7269L180.18 30.9069Z" fill="white"/>
<path d="M187.98 46.2366C185.15 44.2566 184.59 40.7266 186.41 38.1166L186.43 38.0866C188.25 35.4766 191.81 34.7766 194.64 36.7566C197.47 38.7366 198.03 42.2666 196.21 44.8766L196.19 44.9066C194.36 47.5066 190.81 48.2066 187.98 46.2366ZM194.07 43.4266C195.17 41.8566 194.93 39.7366 193.3 38.5966C191.67 37.4566 189.65 37.9566 188.55 39.5366L188.53 39.5666C187.43 41.1366 187.67 43.2566 189.3 44.3966C190.93 45.5366 192.95 45.0366 194.05 43.4566L194.07 43.4266Z" fill="white"/>
<path d="M200.14 55.8966L200.78 51.6266L199.35 50.3266L196.94 52.9766L195.12 51.3166L202.66 43.0366L206.44 46.4866C208.39 48.2666 208.62 50.3566 207.07 52.0666L207.05 52.0866C205.83 53.4266 204.35 53.6066 202.94 53.0366L202.27 57.8366L200.14 55.8966ZM205.14 50.4766C205.85 49.6966 205.67 48.7966 204.79 47.9866L202.98 46.3366L200.81 48.7166L202.65 50.3966C203.54 51.2066 204.48 51.1966 205.11 50.4966L205.14 50.4766Z" fill="white"/>
<path d="M209.66 66.2967L215.25 61.5867L209.56 62.2667L209.52 62.2167L211.13 56.7767L205.58 61.4567L204.02 59.6067L212.58 52.3867L214.29 54.4167L212.57 59.7167L218.09 58.9167L219.8 60.9467L211.24 68.1667L209.66 66.2967Z" fill="white"/>
<path d="M217.61 77.8866L219.19 75.6766L216.66 71.6766L213.99 72.1566L212.65 70.0366L224.75 68.0566L225.97 69.9766L219.01 80.0666L217.61 77.8866ZM222.82 70.5766L218.95 71.2666L220.54 73.7766L222.82 70.5766Z" fill="white"/>
<path d="M220.01 82.1867L230.1 77.3467L231.17 79.5667L223.09 83.4367L225.5 88.4667L223.48 89.4367L220.01 82.1867Z" fill="white"/>
<path d="M226.36 97.0668L237.12 93.9468L239.47 102.057L237.37 102.667L235.7 96.9068L233.52 97.5368L234.99 102.607L232.89 103.217L231.42 98.1468L229.16 98.7968L230.85 104.637L228.74 105.247L226.36 97.0668Z" fill="white"/>
<path d="M230.08 112.297L229.38 107.987L240.44 106.197L241.14 110.507C241.7 113.977 239.71 116.767 236.6 117.277H236.57C233.45 117.787 230.64 115.777 230.08 112.297ZM236.15 114.737C238.11 114.417 239.26 112.857 238.94 110.867L238.63 108.987L231.97 110.067L232.27 111.947C232.59 113.937 234.15 115.057 236.11 114.747L236.15 114.737Z" fill="white"/>
<path d="M231.24 125.667C231.14 122.657 232.76 120.767 236.05 120.657L242.45 120.447L242.53 122.907L236.2 123.117C234.38 123.177 233.46 124.117 233.51 125.627C233.56 127.127 234.5 128.007 236.28 127.957L242.69 127.747L242.77 130.207L236.45 130.417C233.06 130.517 231.34 128.667 231.24 125.667Z" fill="white"/>
<path d="M230.82 138.907C231.11 135.627 233.86 133.417 237.06 133.697H237.09C240.26 133.977 242.64 136.597 242.34 140.027C242.15 142.127 241.34 143.327 240.23 144.267L238.57 142.547C239.43 141.757 239.98 140.927 240.08 139.807C240.25 137.927 238.81 136.437 236.9 136.267H236.87C234.96 136.097 233.25 137.277 233.08 139.187C232.97 140.457 233.41 141.287 234.12 142.237L232.4 143.657C231.28 142.407 230.63 141.067 230.82 138.907Z" fill="white"/>
<path d="M228.41 154.197L231.08 153.737L232.09 149.117L229.86 147.577L230.4 145.127L240.39 152.227L239.9 154.447L227.86 156.727L228.41 154.197ZM237.26 152.667L234.03 150.437L233.39 153.347L237.26 152.667Z" fill="white"/>
<path d="M234.36 165.237L225.89 162.407L226.67 160.067L235.14 162.897L236.22 159.667L238.38 160.387L235.44 169.197L233.28 168.477L234.36 165.237Z" fill="white"/>
<path d="M223.7 168.137L233.99 172.577L233.01 174.837L222.72 170.397L223.7 168.137Z" fill="white"/>
<path d="M218.56 178.257C220.24 175.237 223.7 174.327 226.48 175.877L226.51 175.897C229.29 177.447 230.35 180.917 228.66 183.937C226.98 186.957 223.52 187.867 220.74 186.317L220.71 186.297C217.93 184.747 216.88 181.277 218.56 178.257ZM221.97 184.047C223.65 184.987 225.73 184.537 226.7 182.797C227.67 181.067 226.97 179.097 225.29 178.157L225.26 178.137C223.58 177.197 221.5 177.647 220.53 179.387C219.56 181.127 220.26 183.087 221.94 184.017L221.97 184.047Z" fill="white"/>
<path d="M209.52 192.167L218.48 192.107L212.78 187.827L214.24 185.877L223.2 192.607L221.83 194.427L213.16 194.487L218.68 198.627L217.22 200.577L208.26 193.847L209.52 192.167Z" fill="white"/>
<path d="M97.2497 164.957C97.1997 165.597 97.0597 166.187 96.8197 166.727C96.5797 167.267 96.2397 167.727 95.8097 168.117C95.3797 168.507 94.8597 168.807 94.2497 169.017C93.6397 169.237 92.9397 169.347 92.1597 169.347C91.3497 169.347 90.6197 169.207 89.9697 168.927C89.3197 168.647 88.7797 168.237 88.3297 167.717C87.8797 167.187 87.5397 166.547 87.2897 165.797C87.0497 165.047 86.9297 164.207 86.9297 163.267V162.427C86.9297 161.497 87.0497 160.647 87.2997 159.897C87.5497 159.147 87.8997 158.507 88.3597 157.977C88.8197 157.447 89.3697 157.047 90.0197 156.757C90.6697 156.477 91.3897 156.327 92.1897 156.327C92.9797 156.327 93.6797 156.437 94.2797 156.657C94.8897 156.877 95.3997 157.187 95.8197 157.587C96.2397 157.987 96.5697 158.457 96.8097 159.007C97.0497 159.557 97.1997 160.147 97.2597 160.797H94.6497C94.6197 160.417 94.5597 160.087 94.4497 159.797C94.3497 159.507 94.1997 159.267 94.0097 159.067C93.8197 158.867 93.5697 158.717 93.2697 158.617C92.9697 158.517 92.5997 158.467 92.1697 158.467C91.2897 158.467 90.6297 158.787 90.1997 159.427C89.7697 160.067 89.5497 161.057 89.5497 162.407V163.257C89.5497 163.907 89.5997 164.487 89.6897 164.977C89.7897 165.467 89.9397 165.877 90.1397 166.217C90.3497 166.547 90.6097 166.797 90.9397 166.957C91.2697 167.127 91.6597 167.207 92.1297 167.207C92.5397 167.207 92.8997 167.157 93.1897 167.067C93.4897 166.977 93.7397 166.837 93.9397 166.647C94.1397 166.457 94.2997 166.227 94.3997 165.937C94.5097 165.657 94.5797 165.327 94.6097 164.947H97.2497V164.957Z" fill="#2E343D"/>
<path d="M106.58 163.687H101.57V167.077H107.45V169.177H98.9595V156.517H107.43V158.627H101.57V161.647H106.58V163.687Z" fill="#2E343D"/>
<path d="M113.66 164.537H111.58V169.167H108.97V156.507H113.67C114.4 156.507 115.06 156.587 115.63 156.757C116.21 156.927 116.7 157.167 117.1 157.487C117.5 157.807 117.81 158.207 118.02 158.687C118.23 159.167 118.34 159.717 118.34 160.337C118.34 160.797 118.29 161.217 118.18 161.587C118.08 161.957 117.93 162.287 117.73 162.567C117.53 162.857 117.3 163.107 117.02 163.317C116.74 163.527 116.43 163.717 116.08 163.877L118.82 169.047V169.167H116.02L113.66 164.537ZM111.59 162.427H113.69C114.03 162.427 114.33 162.387 114.59 162.297C114.85 162.207 115.06 162.077 115.23 161.917C115.4 161.747 115.53 161.557 115.62 161.327C115.71 161.097 115.75 160.837 115.75 160.557C115.75 159.957 115.58 159.487 115.24 159.147C114.9 158.807 114.38 158.637 113.68 158.637H111.58V162.427H111.59Z" fill="#2E343D"/>
<path d="M129.44 158.627H125.56V169.177H122.95V158.627H119.12V156.517H129.43V158.627H129.44Z" fill="#2E343D"/>
<path d="M133.7 169.177H131.09V156.517H133.7V169.177Z" fill="#2E343D"/>
<path d="M143.73 163.997H138.72V169.167H136.11V156.507H144.35V158.617H138.72V161.887H143.73V163.997Z" fill="#2E343D"/>
<path d="M148.64 169.177H146.03V156.517H148.64V169.177Z" fill="#2E343D"/>
<path d="M158.68 163.687H153.67V167.077H159.55V169.177H151.06V156.517H159.53V158.627H153.67V161.647H158.68V163.687Z" fill="#2E343D"/>
<path d="M161.08 169.177V156.517H164.98C165.83 156.517 166.61 156.667 167.32 156.957C168.03 157.247 168.64 157.657 169.15 158.197C169.66 158.727 170.05 159.367 170.34 160.107C170.62 160.847 170.77 161.667 170.77 162.577V163.147C170.77 164.047 170.63 164.877 170.35 165.607C170.07 166.347 169.67 166.977 169.16 167.507C168.65 168.037 168.03 168.447 167.32 168.737C166.61 169.027 165.82 169.167 164.96 169.167H161.08V169.177ZM163.68 158.627V167.077H164.94C165.97 167.077 166.76 166.737 167.3 166.057C167.84 165.377 168.11 164.407 168.11 163.137V162.547C168.11 161.257 167.84 160.287 167.31 159.617C166.78 158.957 166 158.617 164.97 158.617H163.68V158.627Z" fill="#2E343D"/>
</svg>
