<svg width="260" height="261" viewBox="0 0 260 261" fill="none" xmlns="http://www.w3.org/2000/svg">
<path d="M131.34 0.00674283C60.0598 -0.723257 0.789806 57.9168 0.799806 129.207C0.799806 184.727 35.8298 232.067 84.9898 250.347V205.377C58.9598 189.967 41.5198 161.597 41.5298 129.157C41.5598 81.0368 80.6198 41.4167 128.74 40.7467C178.18 40.0567 218.47 79.9268 218.47 129.207C218.47 161.627 201.03 189.977 175.01 205.377V250.347C224.17 232.067 259.2 184.737 259.2 129.207C259.2 58.2868 202.08 0.726743 131.34 0.00674283Z" fill="#41AC49"/>
<path d="M91.9795 252.267V189.547C91.9795 185.127 95.5595 181.547 99.9795 181.547H160.01C164.43 181.547 168.01 185.127 168.01 189.547V252.267C168.01 256.687 164.43 260.267 160.01 260.267H99.9795C95.5595 260.267 91.9795 256.687 91.9795 252.267Z" fill="#41AC49"/>
<path d="M104.021 96.4768V69.7968C104.021 69.4368 104.261 69.1968 104.621 69.1968H107.251C107.611 69.1968 107.851 69.4368 107.851 69.7968V96.4768C107.851 96.8368 107.611 97.0768 107.251 97.0768H104.621C104.261 97.0768 104.021 96.8368 104.021 96.4768Z" fill="black"/>
<path d="M113.101 89.627V88.667C113.101 88.307 113.341 88.067 113.701 88.067H116.251C116.611 88.067 116.851 88.307 116.851 88.667V89.427C116.851 92.057 119.281 94.087 123.261 94.087C127.041 94.087 128.801 92.297 128.801 89.907C128.801 87.397 126.651 86.287 121.991 84.407C117.451 82.657 113.471 81.057 113.471 76.207C113.471 71.587 117.011 68.877 122.551 68.877C128.521 68.877 132.391 72.067 132.391 76.807V77.407C132.391 77.767 132.151 78.007 131.791 78.007H129.201C128.841 78.007 128.601 77.807 128.601 77.487V76.997C128.601 74.327 126.411 72.177 122.391 72.177C119.081 72.177 117.211 73.567 117.211 76.117C117.211 78.787 119.281 79.657 123.981 81.457C128.401 83.167 132.621 84.917 132.621 89.777C132.621 94.317 129.001 97.387 122.981 97.387C116.961 97.387 113.101 94.327 113.101 89.627Z" fill="black"/>
<path d="M137.03 87.877V78.397C137.03 72.707 140.97 68.877 146.87 68.877C152.8 68.877 156.75 72.697 156.75 78.397V87.877C156.75 93.607 152.81 97.437 146.87 97.437C140.97 97.427 137.03 93.607 137.03 87.877ZM152.92 88.037V78.357C152.92 74.657 150.49 72.187 146.87 72.187C143.29 72.187 140.86 74.657 140.86 78.357V88.037C140.86 91.697 143.29 94.127 146.87 94.127C150.49 94.127 152.92 91.697 152.92 88.037Z" fill="black"/>
<path d="M104.021 96.4768V69.7968C104.021 69.4368 104.261 69.1968 104.621 69.1968H107.251C107.611 69.1968 107.851 69.4368 107.851 69.7968V96.4768C107.851 96.8368 107.611 97.0768 107.251 97.0768H104.621C104.261 97.0768 104.021 96.8368 104.021 96.4768Z" fill="#2E343D"/>
<path d="M113.101 89.627V88.667C113.101 88.307 113.341 88.067 113.701 88.067H116.251C116.611 88.067 116.851 88.307 116.851 88.667V89.427C116.851 92.057 119.281 94.087 123.261 94.087C127.041 94.087 128.801 92.297 128.801 89.907C128.801 87.397 126.651 86.287 121.991 84.407C117.451 82.657 113.471 81.057 113.471 76.207C113.471 71.587 117.011 68.877 122.551 68.877C128.521 68.877 132.391 72.067 132.391 76.807V77.407C132.391 77.767 132.151 78.007 131.791 78.007H129.201C128.841 78.007 128.601 77.807 128.601 77.487V76.997C128.601 74.327 126.411 72.177 122.391 72.177C119.081 72.177 117.211 73.567 117.211 76.117C117.211 78.787 119.281 79.657 123.981 81.457C128.401 83.167 132.621 84.917 132.621 89.777C132.621 94.317 129.001 97.387 122.981 97.387C116.961 97.387 113.101 94.327 113.101 89.627Z" fill="#2E343D"/>
<path d="M137.03 87.877V78.397C137.03 72.707 140.97 68.877 146.87 68.877C152.8 68.877 156.75 72.697 156.75 78.397V87.877C156.75 93.607 152.81 97.437 146.87 97.437C140.97 97.427 137.03 93.607 137.03 87.877ZM152.92 88.037V78.357C152.92 74.657 150.49 72.187 146.87 72.187C143.29 72.187 140.86 74.657 140.86 78.357V88.037C140.86 91.697 143.29 94.127 146.87 94.127C150.49 94.127 152.92 91.697 152.92 88.037Z" fill="#2E343D"/>
<path d="M59.3497 143.217V139.377C59.3497 139.007 59.4897 138.737 59.7597 138.417C63.4197 134.757 66.6697 130.957 69.7397 127.657C72.2097 124.907 73.8997 122.487 73.8997 120.787C73.8997 118.637 72.2497 117.127 69.7797 117.127C67.3097 117.127 65.6597 118.637 65.6597 120.877V121.797C65.6597 122.297 65.3897 122.577 64.8797 122.577H59.9397C59.4397 122.577 59.1597 122.307 59.1597 121.797V119.877C59.4297 114.797 63.9197 111.597 69.7797 111.597C76.4197 111.597 80.4397 115.667 80.4397 120.657C80.4397 123.307 79.0197 125.967 76.5997 128.937C74.2697 131.817 71.2897 134.797 68.1297 138.137C67.9497 138.277 68.0397 138.457 68.2697 138.457H80.2597C80.7597 138.457 81.0397 138.727 81.0397 139.237V143.217C81.0397 143.717 80.7697 143.997 80.2597 143.997H60.1197C59.6197 143.997 59.3497 143.717 59.3497 143.217Z" fill="#2E343D"/>
<path d="M107.26 134.017V121.937C107.26 115.577 111.42 111.597 118.15 111.597C124.88 111.597 129.09 115.577 129.09 121.937V134.017C129.09 140.467 124.88 144.497 118.15 144.497C111.42 144.497 107.26 140.467 107.26 134.017ZM122.64 134.337V121.747C122.64 118.907 120.9 117.127 118.16 117.127C115.46 117.127 113.72 118.917 113.72 121.747V134.337C113.72 137.177 115.46 138.957 118.16 138.957C120.9 138.957 122.64 137.177 122.64 134.337Z" fill="#2E343D"/>
<path d="M82.7197 134.017V121.937C82.7197 115.577 86.8797 111.597 93.6097 111.597C100.34 111.597 104.55 115.577 104.55 121.937V134.017C104.55 140.467 100.34 144.497 93.6097 144.497C86.8897 144.497 82.7197 140.467 82.7197 134.017ZM98.0997 134.337V121.747C98.0997 118.907 96.3597 117.127 93.6197 117.127C90.9197 117.127 89.1797 118.917 89.1797 121.747V134.337C89.1797 137.177 90.9197 138.957 93.6197 138.957C96.3597 138.957 98.0997 137.177 98.0997 134.337Z" fill="#2E343D"/>
<path d="M133.11 134.017V121.937C133.11 115.577 137.27 111.597 144 111.597C150.73 111.597 154.94 115.577 154.94 121.937V134.017C154.94 140.467 150.73 144.497 144 144.497C137.28 144.497 133.11 140.467 133.11 134.017ZM148.49 134.337V121.747C148.49 118.907 146.75 117.127 144.01 117.127C141.31 117.127 139.57 118.917 139.57 121.747V134.337C139.57 137.177 141.31 138.957 144.01 138.957C146.75 138.957 148.49 137.177 148.49 134.337Z" fill="#2E343D"/>
<path d="M158.63 134.017V121.937C158.63 115.577 162.79 111.597 169.52 111.597C176.25 111.597 180.46 115.577 180.46 121.937V134.017C180.46 140.467 176.25 144.497 169.52 144.497C162.8 144.497 158.63 140.467 158.63 134.017ZM174.01 134.337V121.747C174.01 118.907 172.27 117.127 169.53 117.127C166.83 117.127 165.09 118.917 165.09 121.747V134.337C165.09 137.177 166.83 138.957 169.53 138.957C172.27 138.957 174.01 137.177 174.01 134.337Z" fill="#2E343D"/>
<path d="M201.94 111.957H207.11C207.61 111.957 207.89 112.227 207.89 112.737V143.217C207.89 143.717 207.62 143.997 207.11 143.997H202.21C201.71 143.997 201.43 143.727 201.43 143.217V118.277C201.43 118.097 201.29 117.957 201.11 118.007L197.08 118.827C196.58 118.917 196.21 118.647 196.21 118.137V114.657C196.21 114.247 196.39 113.927 196.8 113.787L200.96 112.137C201.3 112.007 201.58 111.957 201.94 111.957Z" fill="#2E343D"/>
<path d="M187.05 130.947V127.367H194.59V130.947H187.05Z" fill="black"/>
<path d="M125.68 241.447C124.33 241.447 123.28 240.357 122.61 239.537C117.03 232.727 113.16 230.437 110.84 229.077C109.09 228.047 106.64 227.237 107.14 225.127C107.24 224.717 107.29 224.307 107.4 223.937C108.17 221.377 109.85 218.797 112.01 219.027C112.91 219.127 114.11 219.517 115.48 220.227C119.77 222.457 121.79 225.147 123.3 227.067C124.33 225.337 126.48 222.057 130.49 216.987C140.24 204.687 149.85 199.527 151.68 198.617C151.96 198.477 152.28 198.387 152.6 198.377H152.75C153.73 198.377 153.71 198.967 154.09 199.887C154.46 200.797 155.14 201.827 154.43 202.507C152.41 204.487 148.79 208.337 143.06 215.427C137.35 222.487 134.08 229.077 131.69 233.887C129.27 238.757 129 241.447 126.74 241.447C126.75 241.447 125.68 241.447 125.68 241.447Z" fill="white"/>
<path d="M32.89 154.827L15.19 159.077L14.25 155.187L31.95 150.937L32.89 154.827Z" fill="white"/>
<path d="M15.4998 138.817L29.9298 137.367L30.3298 141.347L15.8998 142.797L16.4498 148.307L12.7798 148.677L11.2798 133.677L14.9498 133.307L15.4998 138.817Z" fill="white"/>
<path d="M31.2301 112.627C30.7901 115.347 29.4001 117.937 27.1301 119.787L24.7101 116.997C26.3101 115.597 27.4301 114.037 27.7601 111.987C28.0201 110.367 27.5401 109.287 26.4801 109.117L26.4301 109.107C25.4301 108.947 24.8201 109.477 23.5601 112.357C22.0501 115.827 20.6801 117.997 17.1101 117.427L17.0601 117.417C13.8001 116.897 12.0701 113.927 12.6601 110.257C13.0801 107.637 14.2601 105.537 16.0201 103.957L18.6701 106.487C17.3101 107.897 16.3901 109.357 16.1501 110.877C15.9101 112.387 16.4701 113.297 17.3401 113.437L17.3902 113.447C18.5702 113.637 19.0801 112.927 20.3801 109.957C21.9201 106.467 23.5601 104.627 26.6901 105.127L26.7401 105.137C30.2901 105.707 31.8501 108.747 31.2301 112.627Z" fill="white"/>
<path d="M33.14 101.827L15.96 95.7969L20.5 82.8369L23.86 84.0169L20.63 93.2169L24.11 94.4369L26.95 86.3369L30.31 87.5169L27.47 95.6169L31.08 96.8869L34.35 87.5669L37.71 88.7469L33.14 101.827Z" fill="white"/>
<path d="M45.0698 75.2568L38.0798 75.7168L36.5098 78.4368L41.5498 81.3568L39.5498 84.8268L23.7998 75.7168L27.9698 68.5167C30.1198 64.8067 33.3598 63.7068 36.5998 65.5768L36.6398 65.6068C39.1798 67.0768 39.9898 69.3767 39.5698 71.8067L47.4198 71.2168L45.0698 75.2568ZM34.7398 69.1868C33.2498 68.3268 31.8898 68.9168 30.9098 70.6068L28.9198 74.0468L33.4398 76.6667L35.4698 73.1568C36.4498 71.4668 36.1098 69.9768 34.7798 69.2168L34.7398 69.1868Z" fill="white"/>
<path d="M55.64 61.5766L53.3199 64.2466L34.6499 57.7866L37.5499 54.4466L50.3499 59.2566L43.7899 47.2566L46.6199 43.9966L55.64 61.5766Z" fill="white"/>
<path d="M63.5199 53.547L51.6899 39.727L54.7299 37.127L66.5599 50.947L63.5199 53.547Z" fill="white"/>
<path d="M78.1099 43.0967C73.5799 45.9467 68.0099 44.5767 65.2199 40.1467L65.19 40.1067C62.43 35.7267 63.4699 30.0667 68.2099 27.0867C71.1099 25.2567 73.4599 25.1267 75.7799 25.6367L75.19 29.4767C73.32 29.1467 71.6999 29.2467 70.1599 30.2167C67.5599 31.8467 67.0499 35.1867 68.7099 37.8267L68.7399 37.8667C70.3999 40.5067 73.6099 41.5567 76.2499 39.8967C78.0099 38.7867 78.6499 37.4067 79.1599 35.5467L82.69 36.3667C82.17 39.0667 81.0799 41.2267 78.1099 43.0967Z" fill="white"/>
<path d="M87.8898 37.2469L81.2598 20.2969L94.0497 15.2969L95.3497 18.6169L86.2697 22.1669L87.6198 25.6069L95.6097 22.4769L96.9097 25.7969L88.9197 28.9269L90.3098 32.4869L99.5098 28.8869L100.81 32.2069L87.8898 37.2469Z" fill="white"/>
<path d="M127.85 27.8467L126.91 15.9967L122.42 24.1567L122.32 24.1667L116.65 16.8967L117.59 28.6667L113.67 28.9767L112.23 10.8267L116.53 10.4867L121.91 17.7767L126.07 9.72672L130.37 9.38672L131.81 27.5367L127.85 27.8467Z" fill="white"/>
<path d="M150.25 29.6368L149.16 25.3668L141.54 24.3168L139.33 28.1368L135.29 27.5768L145.52 10.4868L149.18 10.9868L154.4 30.2168L150.25 29.6368ZM146.64 15.4968L143.44 21.0168L148.23 21.6768L146.64 15.4968Z" fill="white"/>
<path d="M169.76 35.5669L165.42 21.6869L161.47 32.5669L157.76 31.2169L163.97 14.1069L167.44 15.3669L171.64 28.8069L175.46 18.2669L179.18 19.6169L172.97 36.7269L169.76 35.5669Z" fill="white"/>
<path d="M188.99 46.1065L189.74 41.7665L183.21 37.6965L179.64 40.2765L176.18 38.1165L192.5 26.6865L195.63 28.6365L192.55 48.3165L188.99 46.1065ZM191.47 31.7165L186.29 35.4465L190.39 38.0065L191.47 31.7165Z" fill="white"/>
<path d="M200.5 56.1367C196.37 52.2567 196.25 46.6867 199.94 42.7567L199.98 42.7167C203.52 38.9467 209.36 38.6167 213.38 42.3867C215.77 44.6267 216.6 46.6267 216.88 49.1067L212.96 49.5967C212.74 47.7867 212.29 46.4367 210.76 44.9967C208.64 43.0067 205.19 43.2967 203.07 45.5467L203.03 45.5867C200.75 48.0167 200.74 51.3567 203.09 53.5667C204.15 54.5667 205.35 55.1867 206.59 55.3567L208.37 53.4567L205.43 50.6967L207.8 48.1767L213.56 53.5867L208.15 59.3467C205.69 59.2267 202.92 58.4167 200.5 56.1367Z" fill="white"/>
<path d="M209.27 64.8268L224.04 54.1968L232.06 65.3368L229.17 67.4168L223.48 59.5068L220.48 61.6668L225.49 68.6268L222.6 70.7068L217.59 63.7468L214.49 65.9768L220.26 73.9968L217.37 76.0768L209.27 64.8268Z" fill="white"/>
<path d="M225.43 92.6666L236.28 87.8266L227.1 86.3166L227.06 86.2166L232.02 78.4566L221.24 83.2666L219.64 79.6766L236.26 72.2666L238.02 76.2066L232.94 83.7066L241.92 84.9366L243.68 88.8766L227.06 96.2866L225.43 92.6666Z" fill="white"/>
<path d="M228.38 101.207L246.16 97.3467L249.07 110.757L245.59 111.507L243.52 101.977L239.91 102.757L241.73 111.137L238.25 111.887L236.43 103.507L232.7 104.317L234.79 113.967L231.31 114.717L228.38 101.207Z" fill="white"/>
<path d="M232.14 131.797L243.53 122.747L231.96 122.977L231.88 119.027L250.08 118.667L250.15 122.357L239.11 131.107L250.32 130.887L250.4 134.837L232.2 135.197L232.14 131.797Z" fill="white"/>
<path d="M244.55 150.887L230.25 148.427L230.93 144.477L245.22 146.937L246.16 141.477L249.8 142.107L247.24 156.967L243.6 156.337L244.55 150.887Z" fill="white"/>
<path d="M97.8405 164.957C97.7905 165.597 97.6505 166.187 97.4105 166.727C97.1705 167.267 96.8305 167.727 96.4005 168.117C95.9705 168.507 95.4505 168.807 94.8405 169.017C94.2305 169.237 93.5305 169.347 92.7505 169.347C91.9405 169.347 91.2105 169.207 90.5605 168.927C89.9105 168.647 89.3705 168.237 88.9205 167.717C88.4705 167.187 88.1306 166.547 87.8806 165.797C87.6406 165.047 87.5205 164.207 87.5205 163.267V162.427C87.5205 161.497 87.6406 160.647 87.8906 159.897C88.1406 159.147 88.4906 158.507 88.9506 157.977C89.4106 157.447 89.9605 157.047 90.6105 156.757C91.2605 156.477 91.9805 156.327 92.7805 156.327C93.5705 156.327 94.2705 156.437 94.8705 156.657C95.4805 156.877 95.9905 157.187 96.4105 157.587C96.8305 157.987 97.1605 158.457 97.4005 159.007C97.6405 159.557 97.7905 160.147 97.8505 160.797H95.2405C95.2105 160.417 95.1505 160.087 95.0405 159.797C94.9405 159.507 94.7905 159.267 94.6005 159.067C94.4105 158.867 94.1605 158.717 93.8605 158.617C93.5605 158.517 93.1906 158.467 92.7606 158.467C91.8806 158.467 91.2205 158.787 90.7905 159.427C90.3605 160.067 90.1406 161.057 90.1406 162.407V163.257C90.1406 163.907 90.1905 164.487 90.2805 164.977C90.3805 165.467 90.5305 165.877 90.7305 166.217C90.9405 166.547 91.2005 166.797 91.5305 166.957C91.8605 167.127 92.2505 167.207 92.7205 167.207C93.1305 167.207 93.4905 167.157 93.7805 167.067C94.0805 166.977 94.3305 166.837 94.5305 166.647C94.7305 166.457 94.8905 166.227 94.9905 165.937C95.1005 165.657 95.1706 165.327 95.2006 164.947H97.8405V164.957Z" fill="#2E343D"/>
<path d="M107.171 163.687H102.161V167.077H108.041V169.177H99.5508V156.517H108.021V158.627H102.161V161.647H107.171V163.687Z" fill="#2E343D"/>
<path d="M114.26 164.537H112.18V169.167H109.57V156.507H114.27C115 156.507 115.66 156.587 116.23 156.757C116.81 156.927 117.3 157.167 117.7 157.487C118.1 157.807 118.41 158.207 118.62 158.687C118.83 159.167 118.94 159.717 118.94 160.337C118.94 160.797 118.89 161.217 118.78 161.587C118.68 161.957 118.53 162.287 118.33 162.567C118.13 162.857 117.9 163.107 117.62 163.317C117.34 163.527 117.03 163.717 116.68 163.877L119.42 169.047V169.167H116.62L114.26 164.537ZM112.18 162.427H114.28C114.62 162.427 114.92 162.387 115.18 162.297C115.44 162.207 115.65 162.077 115.82 161.917C115.99 161.747 116.12 161.557 116.21 161.327C116.3 161.097 116.34 160.837 116.34 160.557C116.34 159.957 116.17 159.487 115.83 159.147C115.49 158.807 114.97 158.637 114.27 158.637H112.17V162.427H112.18Z" fill="#2E343D"/>
<path d="M130.03 158.627H126.15V169.177H123.54V158.627H119.71V156.517H130.02V158.627H130.03Z" fill="#2E343D"/>
<path d="M134.291 169.177H131.681V156.517H134.291V169.177Z" fill="#2E343D"/>
<path d="M144.32 163.997H139.31V169.167H136.7V156.507H144.94V158.617H139.31V161.887H144.32V163.997Z" fill="#2E343D"/>
<path d="M149.241 169.177H146.631V156.517H149.241V169.177Z" fill="#2E343D"/>
<path d="M159.27 163.687H154.26V167.077H160.14V169.177H151.65V156.517H160.12V158.627H154.26V161.647H159.27V163.687Z" fill="#2E343D"/>
<path d="M161.671 169.177V156.517H165.571C166.421 156.517 167.201 156.667 167.911 156.957C168.621 157.247 169.231 157.657 169.741 158.197C170.251 158.727 170.641 159.367 170.931 160.107C171.211 160.847 171.361 161.667 171.361 162.577V163.147C171.361 164.047 171.221 164.877 170.941 165.607C170.661 166.347 170.261 166.977 169.751 167.507C169.241 168.037 168.621 168.447 167.911 168.737C167.201 169.027 166.411 169.167 165.551 169.167H161.671V169.177ZM164.281 158.627V167.077H165.541C166.571 167.077 167.361 166.737 167.901 166.057C168.441 165.377 168.711 164.407 168.711 163.137V162.547C168.711 161.257 168.441 160.287 167.911 159.617C167.381 158.957 166.601 158.617 165.571 158.617H164.281V158.627Z" fill="#2E343D"/>
</svg>
