<svg width="259" height="261" viewBox="0 0 259 261" fill="none" xmlns="http://www.w3.org/2000/svg">
<path d="M130.94 0.00674283C59.6599 -0.723257 0.389904 57.9168 0.399904 129.207C0.399904 184.727 35.4299 232.067 84.5899 250.347V205.377C58.5599 189.967 41.1199 161.597 41.1299 129.157C41.1599 81.0368 80.2199 41.4167 128.34 40.7467C177.78 40.0567 218.07 79.9268 218.07 129.207C218.07 161.627 200.63 189.977 174.61 205.377V250.347C223.77 232.067 258.8 184.737 258.8 129.207C258.8 58.2868 201.68 0.726743 130.94 0.00674283Z" fill="#3462A6"/>
<path d="M91.5798 252.267V189.547C91.5798 185.127 95.1598 181.547 99.5798 181.547H159.61C164.03 181.547 167.61 185.127 167.61 189.547V252.267C167.61 256.687 164.03 260.267 159.61 260.267H99.5798C95.1598 260.267 91.5798 256.687 91.5798 252.267Z" fill="#3462A6"/>
<path d="M103.62 96.4768V69.7968C103.62 69.4368 103.86 69.1968 104.22 69.1968H106.85C107.21 69.1968 107.45 69.4368 107.45 69.7968V96.4768C107.45 96.8368 107.21 97.0768 106.85 97.0768H104.22C103.86 97.0768 103.62 96.8368 103.62 96.4768Z" fill="black"/>
<path d="M112.7 89.627V88.667C112.7 88.307 112.94 88.067 113.3 88.067H115.85C116.21 88.067 116.45 88.307 116.45 88.667V89.427C116.45 92.057 118.88 94.087 122.86 94.087C126.64 94.087 128.4 92.297 128.4 89.907C128.4 87.397 126.25 86.287 121.59 84.407C117.05 82.657 113.07 81.057 113.07 76.207C113.07 71.587 116.61 68.877 122.15 68.877C128.12 68.877 131.99 72.067 131.99 76.807V77.407C131.99 77.767 131.75 78.007 131.39 78.007H128.8C128.44 78.007 128.2 77.807 128.2 77.487V76.997C128.2 74.327 126.01 72.177 121.99 72.177C118.68 72.177 116.81 73.567 116.81 76.117C116.81 78.787 118.88 79.657 123.58 81.457C128 83.167 132.22 84.917 132.22 89.777C132.22 94.317 128.6 97.387 122.58 97.387C116.56 97.387 112.7 94.327 112.7 89.627Z" fill="black"/>
<path d="M136.63 87.877V78.397C136.63 72.707 140.57 68.877 146.47 68.877C152.4 68.877 156.35 72.697 156.35 78.397V87.877C156.35 93.607 152.41 97.437 146.47 97.437C140.57 97.427 136.63 93.607 136.63 87.877ZM152.52 88.037V78.357C152.52 74.657 150.09 72.187 146.47 72.187C142.89 72.187 140.46 74.657 140.46 78.357V88.037C140.46 91.697 142.89 94.127 146.47 94.127C150.09 94.127 152.52 91.697 152.52 88.037Z" fill="black"/>
<path d="M103.62 96.4768V69.7968C103.62 69.4368 103.86 69.1968 104.22 69.1968H106.85C107.21 69.1968 107.45 69.4368 107.45 69.7968V96.4768C107.45 96.8368 107.21 97.0768 106.85 97.0768H104.22C103.86 97.0768 103.62 96.8368 103.62 96.4768Z" fill="#2E343D"/>
<path d="M112.7 89.627V88.667C112.7 88.307 112.94 88.067 113.3 88.067H115.85C116.21 88.067 116.45 88.307 116.45 88.667V89.427C116.45 92.057 118.88 94.087 122.86 94.087C126.64 94.087 128.4 92.297 128.4 89.907C128.4 87.397 126.25 86.287 121.59 84.407C117.05 82.657 113.07 81.057 113.07 76.207C113.07 71.587 116.61 68.877 122.15 68.877C128.12 68.877 131.99 72.067 131.99 76.807V77.407C131.99 77.767 131.75 78.007 131.39 78.007H128.8C128.44 78.007 128.2 77.807 128.2 77.487V76.997C128.2 74.327 126.01 72.177 121.99 72.177C118.68 72.177 116.81 73.567 116.81 76.117C116.81 78.787 118.88 79.657 123.58 81.457C128 83.167 132.22 84.917 132.22 89.777C132.22 94.317 128.6 97.387 122.58 97.387C116.56 97.387 112.7 94.327 112.7 89.627Z" fill="#2E343D"/>
<path d="M136.63 87.877V78.397C136.63 72.707 140.57 68.877 146.47 68.877C152.4 68.877 156.35 72.697 156.35 78.397V87.877C156.35 93.607 152.41 97.437 146.47 97.437C140.57 97.427 136.63 93.607 136.63 87.877ZM152.52 88.037V78.357C152.52 74.657 150.09 72.187 146.47 72.187C142.89 72.187 140.46 74.657 140.46 78.357V88.037C140.46 91.697 142.89 94.127 146.47 94.127C150.09 94.127 152.52 91.697 152.52 88.037Z" fill="#2E343D"/>
<path d="M99.0199 119.537V136.527C99.0199 142.737 93.8299 146.807 86.3199 146.807C78.9199 146.807 73.8999 142.747 73.8999 136.697V135.397C73.8999 134.777 74.2399 134.437 74.8599 134.437H80.8999C81.5199 134.437 81.8599 134.667 81.8599 134.997V135.617C81.8599 138.097 83.6699 139.967 86.3199 139.967C89.0899 139.967 91.0599 138.107 91.0599 135.447V130.257C91.0599 129.977 90.8899 129.857 90.6599 130.087C88.8499 131.557 86.7099 132.007 84.5599 132.007C80.0999 132.007 76.3199 129.917 74.2799 125.967C73.3199 124.157 72.9199 121.957 72.9199 119.477C72.9199 117.217 73.3199 115.247 73.9899 113.607C75.9099 109.207 80.1999 106.437 85.8999 106.437C91.7199 106.437 96.1199 109.257 97.9799 114.007C98.6799 115.647 99.0199 117.567 99.0199 119.537ZM90.9999 119.257C90.9999 117.957 90.7699 116.777 90.2699 115.817C89.4799 114.237 88.0699 113.337 85.9799 113.337C83.8899 113.337 82.5399 114.297 81.7499 115.817C81.1899 116.777 80.8999 118.017 80.8999 119.377C80.8999 120.677 81.1799 122.087 81.7999 123.107C82.6999 124.577 84.0599 125.367 85.9199 125.367C87.9499 125.367 89.3599 124.577 90.1499 123.057C90.7799 121.967 90.9999 120.497 90.9999 119.257Z" fill="#2E343D"/>
<path d="M103.98 134.047V119.147C103.98 111.297 109.12 106.387 117.42 106.387C125.72 106.387 130.91 111.297 130.91 119.147V134.047C130.91 142.007 125.72 146.977 117.42 146.977C109.12 146.977 103.98 142.007 103.98 134.047ZM122.95 134.447V118.917C122.95 115.417 120.8 113.217 117.42 113.217C114.09 113.217 111.94 115.417 111.94 118.917V134.447C111.94 137.947 114.09 140.147 117.42 140.147C120.81 140.147 122.95 137.947 122.95 134.447Z" fill="#2E343D"/>
<path d="M136.16 134.047V119.147C136.16 111.297 141.3 106.387 149.6 106.387C157.9 106.387 163.09 111.297 163.09 119.147V134.047C163.09 142.007 157.9 146.977 149.6 146.977C141.3 146.977 136.16 142.007 136.16 134.047ZM155.13 134.447V118.917C155.13 115.417 152.98 113.217 149.6 113.217C146.27 113.217 144.12 115.417 144.12 118.917V134.447C144.12 137.947 146.27 140.147 149.6 140.147C152.99 140.147 155.13 137.947 155.13 134.447Z" fill="#2E343D"/>
<path d="M173.82 106.837H180.2C180.82 106.837 181.16 107.177 181.16 107.797V145.397C181.16 146.017 180.82 146.357 180.2 146.357H174.16C173.54 146.357 173.2 146.017 173.2 145.397V114.627C173.2 114.397 173.03 114.227 172.81 114.287L167.84 115.307C167.22 115.417 166.77 115.077 166.77 114.457V110.167C166.77 109.657 167 109.267 167.5 109.097L172.64 107.067C173.03 106.897 173.37 106.837 173.82 106.837Z" fill="#2E343D"/>
<path d="M125.28 241.447C123.93 241.447 122.88 240.357 122.21 239.537C116.63 232.727 112.76 230.437 110.44 229.077C108.69 228.047 106.24 227.237 106.74 225.127C106.84 224.717 106.89 224.307 107 223.937C107.77 221.377 109.45 218.797 111.61 219.027C112.51 219.127 113.71 219.517 115.08 220.227C119.37 222.457 121.39 225.147 122.9 227.067C123.93 225.337 126.08 222.057 130.09 216.987C139.84 204.687 149.45 199.527 151.28 198.617C151.56 198.477 151.88 198.387 152.2 198.367H152.35C153.33 198.367 153.31 198.957 153.69 199.877C154.06 200.787 154.74 201.817 154.03 202.497C152.01 204.477 148.39 208.327 142.66 215.417C136.95 222.477 133.68 229.067 131.29 233.877C128.87 238.747 128.6 241.437 126.34 241.437C126.35 241.447 125.28 241.447 125.28 241.447Z" fill="white"/>
<path d="M47.1298 200.077C48.1398 199.087 49.1798 198.397 50.2298 197.987C51.2898 197.587 52.3098 197.457 53.3098 197.607L52.9498 194.377L55.2098 194.527L55.6298 198.557C55.9898 198.797 56.3298 199.087 56.6598 199.427C57.2998 200.077 57.7598 200.797 58.0498 201.567C58.3398 202.347 58.4498 203.147 58.3898 203.977C58.3298 204.807 58.0798 205.647 57.6498 206.497C57.2198 207.347 56.5998 208.167 55.7798 208.957L55.2398 209.487C54.4298 210.277 53.5898 210.887 52.7298 211.297C51.8698 211.707 51.0298 211.937 50.1998 211.987C49.3698 212.037 48.5698 211.907 47.7998 211.597C47.0298 211.287 46.3298 210.807 45.6898 210.157C45.0398 209.487 44.5698 208.767 44.2698 207.987C43.9798 207.207 43.8598 206.397 43.9298 205.567C43.9998 204.737 44.2598 203.897 44.6898 203.057C45.1298 202.217 45.7598 201.397 46.5698 200.607L47.1298 200.077ZM48.3898 202.487C47.1898 203.657 46.4898 204.777 46.3098 205.837C46.1298 206.897 46.4398 207.837 47.2398 208.657C47.6298 209.057 48.0498 209.337 48.5198 209.497C48.9898 209.657 49.4798 209.697 50.0098 209.617C50.5398 209.537 51.0898 209.337 51.6598 209.007C52.2398 208.677 52.8198 208.227 53.4198 207.647L53.9798 207.107C54.5798 206.527 55.0498 205.947 55.3898 205.377C55.7298 204.807 55.9498 204.257 56.0398 203.727C56.1298 203.197 56.0998 202.697 55.9498 202.227C55.7998 201.757 55.5298 201.317 55.1398 200.917C54.3298 200.087 53.3998 199.757 52.3398 199.927C51.2798 200.097 50.1498 200.767 48.9398 201.937L48.3898 202.487Z" fill="white"/>
<path d="M31.3798 192.147L39.4898 186.307C40.1798 185.807 40.8798 185.487 41.5698 185.347C42.2598 185.207 42.9298 185.217 43.5798 185.377C44.2298 185.537 44.8298 185.827 45.3998 186.247C45.9698 186.667 46.4798 187.197 46.9298 187.827C47.3998 188.477 47.7398 189.137 47.9698 189.817C48.1898 190.497 48.2798 191.167 48.2198 191.817C48.1598 192.477 47.9498 193.107 47.5998 193.707C47.2398 194.307 46.7198 194.867 46.0198 195.357L37.9098 201.197L36.3998 199.097L44.5098 193.257C44.9398 192.947 45.2798 192.617 45.5098 192.277C45.7398 191.937 45.8798 191.587 45.9398 191.227C45.9898 190.867 45.9598 190.507 45.8398 190.137C45.7198 189.767 45.5298 189.397 45.2598 189.027C44.9898 188.657 44.6998 188.357 44.3898 188.117C44.0798 187.887 43.7398 187.737 43.3798 187.677C43.0198 187.617 42.6498 187.647 42.2498 187.757C41.8498 187.867 41.4398 188.077 41.0098 188.397L32.8998 194.237L31.3798 192.147Z" fill="white"/>
<path d="M34.69 174.557L37.36 179.687L41 179.157L42.25 181.547L26.39 183.437L25.31 181.367L35.96 169.457L37.21 171.857L34.69 174.557ZM35.17 180.007L33.17 176.167L28.67 180.947L35.17 180.007Z" fill="white"/>
<path d="M32.19 165.087L29.91 158.697L31.86 157.997L35.01 166.827L20.94 171.847L20.07 169.397L32.19 165.087Z" fill="white"/>
<path d="M30.4099 152.087L31.0298 154.597L16.5298 158.197L15.9099 155.687L30.4099 152.087Z" fill="white"/>
<path d="M15.1999 139.077L15.8499 143.687L28.5699 141.887L28.9299 144.437L16.2099 146.237L16.8599 150.807L14.7899 151.097L13.1299 139.357L15.1999 139.077Z" fill="white"/>
<path d="M19.8899 129.207L12.7499 125.887L12.6999 123.017L22.2199 127.867L27.7199 127.777L27.7599 130.387L22.2599 130.477L12.8999 135.647L12.8499 132.767L19.8899 129.207Z" fill="white"/>
<path d="M27.0799 104.517L25.8999 110.187L29.0599 112.087L28.5099 114.727L15.0399 106.147L15.5199 103.867L31.2999 101.387L30.7499 104.037L27.0799 104.517ZM23.9999 109.037L24.8899 104.797L18.3799 105.647L23.9999 109.037Z" fill="white"/>
<path d="M31.2399 90.1066C30.9599 90.0066 30.6899 89.9566 30.4399 89.9566C30.1899 89.9566 29.9299 90.0366 29.6599 90.1866C29.3899 90.3366 29.0999 90.5766 28.7899 90.9066C28.4799 91.2366 28.1199 91.6666 27.7099 92.2066C27.2699 92.8066 26.8099 93.3366 26.3499 93.8066C25.8899 94.2766 25.4099 94.6566 24.9199 94.9366C24.4299 95.2166 23.9199 95.3966 23.3899 95.4666C22.8599 95.5366 22.3099 95.4666 21.7399 95.2566C21.1699 95.0466 20.6999 94.7366 20.3099 94.3266C19.9199 93.9166 19.6299 93.4266 19.4499 92.8566C19.2599 92.2966 19.1799 91.6666 19.2099 90.9866C19.2399 90.3066 19.3899 89.5966 19.6599 88.8566C19.9499 88.0666 20.3199 87.3966 20.7799 86.8466C21.2399 86.2966 21.7399 85.8766 22.2899 85.5866C22.8399 85.2966 23.4199 85.1266 24.0199 85.0866C24.6199 85.0466 25.2199 85.1266 25.7999 85.3466L24.9099 87.7766C24.5699 87.6566 24.2399 87.5866 23.9099 87.5966C23.5899 87.5966 23.2799 87.6666 22.9899 87.8166C22.6999 87.9566 22.4399 88.1766 22.1999 88.4666C21.9599 88.7566 21.7599 89.1366 21.5899 89.5866C21.4299 90.0166 21.3499 90.4066 21.3299 90.7566C21.3099 91.1066 21.3499 91.4166 21.4499 91.6866C21.5499 91.9566 21.6999 92.1866 21.8999 92.3766C22.0999 92.5666 22.3399 92.7066 22.6199 92.8066C23.1399 92.9966 23.6599 92.9066 24.1899 92.5466C24.7199 92.1766 25.3099 91.5466 25.9699 90.6466C26.4899 89.9366 26.9999 89.3466 27.4899 88.8766C27.9799 88.3966 28.4799 88.0366 28.9699 87.7866C29.4699 87.5366 29.9699 87.3966 30.4899 87.3766C30.9999 87.3566 31.5399 87.4466 32.0999 87.6466C32.6899 87.8666 33.1799 88.1766 33.5699 88.5766C33.9599 88.9866 34.2399 89.4666 34.4099 90.0166C34.5799 90.5666 34.6499 91.1866 34.5999 91.8666C34.5499 92.5466 34.3899 93.2666 34.1099 94.0266C33.8599 94.6966 33.5299 95.3366 33.1099 95.9266C32.6899 96.5166 32.1999 97.0066 31.6399 97.3866C31.0799 97.7766 30.4699 98.0266 29.7999 98.1366C29.1299 98.2566 28.4199 98.1766 27.6799 97.9066L28.5699 95.4666C29.0099 95.6266 29.4199 95.6866 29.7999 95.6466C30.1799 95.6066 30.5099 95.4866 30.8199 95.2866C31.1199 95.0866 31.3899 94.8166 31.6199 94.4766C31.8499 94.1366 32.0399 93.7566 32.1999 93.3266C32.5099 92.4766 32.5699 91.7766 32.3799 91.2266C32.1899 90.6966 31.8099 90.3166 31.2399 90.1066Z" fill="white"/>
<path d="M37.4 77.2369C37.13 77.0969 36.88 77.0069 36.63 76.9769C36.38 76.9469 36.11 76.9869 35.83 77.1069C35.54 77.2269 35.22 77.4169 34.87 77.7069C34.52 77.9869 34.1 78.3669 33.62 78.8569C33.1 79.3869 32.58 79.8569 32.06 80.2569C31.54 80.6569 31.01 80.9669 30.49 81.1869C29.97 81.3969 29.44 81.5069 28.91 81.5069C28.38 81.5069 27.84 81.3569 27.3 81.0769C26.77 80.7969 26.34 80.4269 26.01 79.9569C25.68 79.4969 25.46 78.9669 25.35 78.3869C25.24 77.8069 25.25 77.1769 25.37 76.5069C25.49 75.8369 25.74 75.1569 26.1 74.4569C26.49 73.7169 26.95 73.0969 27.48 72.6169C28.01 72.1369 28.56 71.7869 29.15 71.5769C29.73 71.3669 30.33 71.2769 30.93 71.3169C31.53 71.3569 32.11 71.5269 32.66 71.8169L31.45 74.1069C31.13 73.9369 30.81 73.8269 30.49 73.7869C30.17 73.7469 29.85 73.7769 29.55 73.8769C29.24 73.9769 28.95 74.1569 28.68 74.4169C28.4 74.6769 28.15 75.0169 27.93 75.4469C27.72 75.8569 27.58 76.2269 27.51 76.5669C27.44 76.9069 27.44 77.2269 27.5 77.5069C27.56 77.7869 27.68 78.0369 27.85 78.2469C28.02 78.4569 28.24 78.6369 28.5 78.7669C28.99 79.0269 29.52 79.0069 30.09 78.7169C30.66 78.4269 31.34 77.8769 32.12 77.0769C32.73 76.4469 33.31 75.9269 33.87 75.5269C34.42 75.1269 34.96 74.8269 35.49 74.6469C36.02 74.4669 36.54 74.3969 37.05 74.4469C37.56 74.4969 38.08 74.6569 38.61 74.9369C39.17 75.2269 39.61 75.6069 39.94 76.0569C40.27 76.5169 40.48 77.0269 40.58 77.5969C40.68 78.1669 40.65 78.7869 40.51 79.4569C40.37 80.1269 40.11 80.8169 39.73 81.5269C39.39 82.1669 38.98 82.7469 38.48 83.2669C37.98 83.7969 37.43 84.2069 36.82 84.5169C36.21 84.8269 35.57 84.9869 34.89 85.0169C34.21 85.0369 33.52 84.8669 32.82 84.4969L34.03 82.1969C34.45 82.4169 34.85 82.5369 35.22 82.5469C35.6 82.5569 35.95 82.4869 36.28 82.3269C36.61 82.1669 36.91 81.9369 37.18 81.6369C37.45 81.3369 37.7 80.9769 37.91 80.5769C38.33 79.7769 38.49 79.0969 38.38 78.5169C38.26 77.9469 37.93 77.5169 37.4 77.2369Z" fill="white"/>
<path d="M38.11 56.2969L46.21 62.1569C46.9 62.6569 47.42 63.2169 47.77 63.8269C48.12 64.4369 48.32 65.0769 48.37 65.7369C48.42 66.3969 48.34 67.0669 48.11 67.7469C47.89 68.4169 47.55 69.0769 47.1 69.6969C46.63 70.3469 46.11 70.8869 45.54 71.3069C44.97 71.7269 44.36 72.0169 43.72 72.1669C43.08 72.3169 42.41 72.3169 41.73 72.1669C41.04 72.0169 40.36 71.6869 39.66 71.1869L31.56 65.3269L33.08 63.2369L41.18 69.0969C41.61 69.4069 42.03 69.6269 42.42 69.7369C42.81 69.8469 43.19 69.8769 43.55 69.8169C43.91 69.7569 44.24 69.6069 44.56 69.3769C44.87 69.1469 45.17 68.8469 45.43 68.4769C45.7 68.1069 45.89 67.7369 46.02 67.3569C46.14 66.9869 46.18 66.6169 46.12 66.2669C46.07 65.9069 45.92 65.5669 45.69 65.2269C45.46 64.8869 45.13 64.5569 44.7 64.2469L36.6 58.3869L38.11 56.2969Z" fill="white"/>
<path d="M52.3799 54.1967L50.3699 56.2767L54.5099 60.2767L52.6999 62.1467L41.9599 51.7567L45.6099 47.9767C46.1999 47.3667 46.7999 46.8867 47.4099 46.5367C48.0199 46.1867 48.6199 45.9867 49.2099 45.9167C49.7999 45.8467 50.3899 45.9267 50.9599 46.1467C51.5299 46.3667 52.0799 46.7267 52.6099 47.2467C53.3299 47.9367 53.7599 48.6967 53.9099 49.5067C54.0599 50.3267 53.9599 51.1667 53.6299 52.0367L60.4399 53.9567L60.5399 54.0467L58.6099 56.0467L52.3799 54.1967ZM48.8699 54.8267L50.7299 52.9067C51.0499 52.5767 51.2899 52.2367 51.4499 51.8967C51.5999 51.5567 51.6799 51.2367 51.6899 50.9167C51.6899 50.5967 51.6299 50.2867 51.4899 49.9967C51.3499 49.7067 51.1599 49.4267 50.8999 49.1767C50.6199 48.9067 50.3399 48.7067 50.0399 48.5667C49.7399 48.4267 49.4299 48.3667 49.1199 48.3767C48.7999 48.3867 48.4799 48.4767 48.1499 48.6467C47.8199 48.8167 47.4799 49.0767 47.1399 49.4367L45.2899 51.3467L48.8699 54.8267Z" fill="white"/>
<path d="M67.2099 44.2866L62.6299 47.8266L63.7999 51.3166L61.6699 52.9666L56.9899 37.6966L58.8299 36.2666L72.4499 44.6166L70.3099 46.2766L67.2099 44.2866ZM61.9299 45.7266L65.3499 43.0766L59.8399 39.4966L61.9299 45.7266Z" fill="white"/>
<path d="M85.0799 37.4667L82.8099 38.7267L71.8399 32.6867L76.9799 41.9567L74.7099 43.2167L67.4599 30.1567L69.7299 28.8967L80.7399 34.9567L75.5799 25.6567L77.8299 24.4067L85.0799 37.4667Z" fill="white"/>
<path d="M97.7899 27.2868C97.9799 27.9968 98.0499 28.6868 98.0099 29.3668C97.9699 30.0468 97.7999 30.6768 97.4999 31.2668C97.1999 31.8568 96.7699 32.3968 96.1999 32.8768C95.6299 33.3568 94.9199 33.7568 94.0599 34.0768C93.1999 34.3968 92.3599 34.5268 91.5499 34.4768C90.7399 34.4268 89.9799 34.1968 89.2799 33.8068C88.5799 33.4168 87.9399 32.8568 87.3799 32.1468C86.8099 31.4268 86.3499 30.5668 85.9699 29.5468L85.5499 28.4068C85.1799 27.3968 84.9699 26.4368 84.9399 25.5168C84.9099 24.5968 85.0299 23.7568 85.3199 22.9968C85.6099 22.2368 86.0499 21.5668 86.6399 20.9868C87.2299 20.4068 87.9699 19.9568 88.8499 19.6368C89.6799 19.3268 90.4699 19.1768 91.1999 19.1768C91.9299 19.1768 92.5999 19.3168 93.1999 19.5768C93.7999 19.8368 94.3399 20.2168 94.8099 20.7168C95.2799 21.2168 95.6799 21.7968 96.0099 22.4668L93.5899 23.3668C93.3699 22.9468 93.1399 22.5768 92.8799 22.2668C92.6199 21.9568 92.3299 21.7268 92.0099 21.5668C91.6899 21.4068 91.3299 21.3268 90.9299 21.3268C90.5299 21.3268 90.0799 21.4268 89.5799 21.6068C89.0299 21.8068 88.5799 22.0968 88.2499 22.4568C87.9099 22.8168 87.6799 23.2468 87.5499 23.7468C87.4199 24.2468 87.3899 24.8068 87.4699 25.4368C87.5499 26.0668 87.7199 26.7468 87.9899 27.4868L88.4199 28.6368C88.6799 29.3368 88.9799 29.9468 89.3099 30.4768C89.6399 31.0068 90.0099 31.4168 90.4199 31.7368C90.8299 32.0468 91.2699 32.2468 91.7599 32.3168C92.2499 32.3868 92.7699 32.3268 93.3399 32.1168C93.8699 31.9268 94.2899 31.6968 94.6099 31.4368C94.9299 31.1768 95.1599 30.8868 95.3099 30.5668C95.4599 30.2368 95.5399 29.8768 95.5399 29.4868C95.5399 29.0868 95.4899 28.6568 95.3799 28.1868L97.7899 27.2868Z" fill="white"/>
<path d="M109.86 22.6069L103.87 23.9269L104.86 28.4169L111.87 26.8769L112.32 28.8969L102.78 30.9969L99.57 16.4069L109.04 14.3169L109.49 16.3569L102.55 17.8869L103.44 21.9169L109.43 20.5969L109.86 22.6069Z" fill="white"/>
<path d="M125.68 12.6767L129.8 24.1967L134.28 12.8167L137.64 12.8667L137.4 27.8067L134.81 27.7667L134.89 22.8367L135.25 16.2567L130.65 27.6967L128.79 27.6667L124.57 16.0967L124.72 22.6767L124.64 27.5967L122.05 27.5567L122.29 12.6167L125.68 12.6767Z" fill="white"/>
<path d="M150.41 26.3667L144.71 25.3467L142.9 28.5567L140.24 28.0767L148.43 14.3667L150.72 14.7767L153.65 30.4867L150.98 30.0067L150.41 26.3667ZM145.8 23.4067L150.06 24.1667L149.02 17.6867L145.8 23.4067Z" fill="white"/>
<path d="M167.44 35.0667L164.98 34.2267L162.13 22.0367L158.69 32.0667L156.23 31.2267L161.09 17.0967L163.55 17.9367L166.41 30.1767L169.87 20.1167L172.31 20.9567L167.44 35.0667Z" fill="white"/>
<path d="M180.32 37.6067L175.2 34.9067L172.5 37.4167L170.11 36.1567L182.08 25.5767L184.14 26.6667L182.16 42.5167L179.76 41.2467L180.32 37.6067ZM176.82 33.3867L180.65 35.4067L181.63 28.9167L176.82 33.3867Z" fill="white"/>
<path d="M194.62 49.1265C194.37 49.1965 194.06 49.2565 193.69 49.2865C193.32 49.3265 192.89 49.2965 192.4 49.2065C191.92 49.1165 191.38 48.9565 190.8 48.7065C190.21 48.4565 189.58 48.0865 188.91 47.5965C188.15 47.0465 187.56 46.4065 187.12 45.6765C186.68 44.9565 186.41 44.1765 186.32 43.3565C186.23 42.5365 186.32 41.6765 186.6 40.7665C186.88 39.8665 187.35 38.9565 188.03 38.0365L188.61 37.2465C189.28 36.3265 190 35.5965 190.75 35.0465C191.5 34.4965 192.28 34.1265 193.07 33.9365C193.86 33.7565 194.65 33.7565 195.46 33.9465C196.26 34.1365 197.05 34.5165 197.83 35.0865C198.56 35.6265 199.13 36.1865 199.54 36.7765C199.95 37.3665 200.21 37.9765 200.34 38.5865C200.46 39.2065 200.46 39.8265 200.33 40.4565C200.2 41.0865 199.96 41.7065 199.62 42.3265L197.57 40.8165C197.75 40.4665 197.88 40.1165 197.96 39.7665C198.04 39.4165 198.05 39.0665 197.99 38.7265C197.93 38.3865 197.79 38.0565 197.58 37.7265C197.37 37.3965 197.06 37.0865 196.65 36.7865C196.16 36.4265 195.67 36.2065 195.17 36.1165C194.68 36.0365 194.18 36.0765 193.68 36.2565C193.18 36.4265 192.69 36.7265 192.2 37.1565C191.71 37.5765 191.22 38.1165 190.74 38.7665L190.14 39.5765C189.65 40.2365 189.3 40.8765 189.06 41.4965C188.83 42.1165 188.72 42.6865 188.73 43.2365C188.74 43.7765 188.87 44.2865 189.12 44.7465C189.37 45.2065 189.74 45.6165 190.22 45.9765C190.58 46.2365 190.9 46.4465 191.19 46.5865C191.48 46.7265 191.74 46.8265 191.97 46.8865C192.2 46.9465 192.4 46.9765 192.58 46.9665C192.76 46.9665 192.91 46.9465 193.04 46.9265L194.77 44.5665L192.29 42.7465L193.46 41.1565L198.03 44.5065L194.62 49.1265Z" fill="white"/>
<path d="M207.31 54.6167L202.91 50.3367L199.7 53.6267L204.84 58.6367L203.39 60.1167L196.39 53.2967L206.82 42.5967L213.77 49.3667L212.31 50.8667L207.22 45.9067L204.34 48.8567L208.74 53.1367L207.31 54.6167Z" fill="white"/>
<path d="M219.54 56.0667L212.93 66.3667L224.68 62.9667L226.69 65.6567L214.71 74.5867L213.16 72.5167L217.11 69.5767L222.55 65.8467L210.68 69.1867L209.57 67.6967L216.16 57.2867L211.04 61.4267L207.09 64.3667L205.54 62.2967L217.52 53.3667L219.54 56.0667Z" fill="white"/>
<path d="M226.59 82.7568L223.74 77.3168L219.67 79.4468L223 85.8068L221.16 86.7668L216.63 78.1068L229.87 71.1768L234.37 79.7668L232.52 80.7368L229.23 74.4468L225.58 76.3568L228.43 81.7968L226.59 82.7568Z" fill="white"/>
<path d="M226.4 100.827L225.54 98.3765L233.33 88.5765L223.33 92.0965L222.47 89.6465L236.56 84.6865L237.42 87.1365L229.6 96.9765L239.64 93.4365L240.5 95.8665L226.4 100.827Z" fill="white"/>
<path d="M242.01 112.647L241.11 108.077L228.5 110.547L228 108.017L240.61 105.547L239.72 101.017L241.77 100.617L244.05 112.247L242.01 112.647Z" fill="white"/>
<path d="M233.95 132.207C234.25 132.207 234.52 132.167 234.76 132.087C235 132.007 235.22 131.847 235.42 131.607C235.62 131.377 235.82 131.057 236.01 130.637C236.2 130.227 236.4 129.697 236.61 129.047C236.83 128.337 237.09 127.687 237.37 127.087C237.65 126.487 237.98 125.977 238.35 125.547C238.72 125.117 239.14 124.787 239.62 124.547C240.1 124.307 240.64 124.197 241.25 124.207C241.85 124.217 242.4 124.357 242.91 124.617C243.41 124.877 243.84 125.247 244.21 125.717C244.57 126.187 244.85 126.747 245.04 127.407C245.23 128.057 245.33 128.777 245.31 129.567C245.3 130.407 245.16 131.167 244.91 131.827C244.66 132.497 244.32 133.057 243.89 133.507C243.47 133.957 242.98 134.307 242.42 134.547C241.86 134.787 241.28 134.897 240.65 134.887L240.69 132.297C241.05 132.307 241.39 132.257 241.69 132.147C242 132.037 242.26 131.867 242.49 131.637C242.72 131.407 242.89 131.117 243.02 130.767C243.15 130.417 243.22 129.997 243.23 129.507C243.24 129.047 243.19 128.647 243.1 128.317C243 127.977 242.86 127.697 242.68 127.477C242.5 127.247 242.28 127.087 242.03 126.977C241.78 126.867 241.51 126.807 241.21 126.807C240.66 126.797 240.19 127.057 239.81 127.567C239.43 128.087 239.08 128.877 238.75 129.947C238.49 130.787 238.2 131.507 237.89 132.117C237.58 132.727 237.23 133.237 236.84 133.637C236.45 134.037 236.02 134.337 235.54 134.527C235.06 134.717 234.52 134.807 233.93 134.797C233.3 134.787 232.74 134.657 232.24 134.397C231.74 134.137 231.32 133.777 230.97 133.307C230.62 132.837 230.36 132.277 230.19 131.617C230.01 130.957 229.93 130.227 229.94 129.417C229.95 128.697 230.06 127.997 230.27 127.297C230.48 126.607 230.78 125.977 231.18 125.437C231.58 124.887 232.08 124.447 232.67 124.117C233.26 123.787 233.96 123.627 234.75 123.647L234.71 126.247C234.24 126.237 233.83 126.317 233.49 126.477C233.15 126.637 232.87 126.867 232.65 127.147C232.43 127.437 232.27 127.777 232.16 128.167C232.05 128.567 232 128.987 231.99 129.447C231.98 130.347 232.15 131.027 232.51 131.497C232.87 131.957 233.35 132.197 233.95 132.207Z" fill="white"/>
<path d="M236.96 144.127L243.5 148.517L243.1 151.367L234.44 145.097L228.99 144.337L229.35 141.757L234.8 142.517L244.85 138.857L244.45 141.717L236.96 144.127Z" fill="white"/>
<path d="M229.26 160.317C229.55 160.397 229.82 160.427 230.07 160.407C230.32 160.387 230.57 160.287 230.83 160.117C231.09 159.947 231.36 159.687 231.64 159.337C231.93 158.987 232.25 158.527 232.62 157.957C233.02 157.327 233.43 156.767 233.86 156.257C234.29 155.747 234.73 155.337 235.2 155.017C235.67 154.697 236.16 154.487 236.68 154.377C237.2 154.267 237.75 154.297 238.34 154.457C238.92 154.617 239.42 154.897 239.84 155.277C240.26 155.657 240.58 156.127 240.81 156.677C241.04 157.227 241.16 157.837 241.19 158.517C241.21 159.197 241.11 159.917 240.9 160.677C240.67 161.487 240.35 162.177 239.93 162.757C239.51 163.337 239.04 163.787 238.52 164.127C237.99 164.457 237.43 164.667 236.83 164.757C236.23 164.847 235.64 164.807 235.04 164.637L235.74 162.147C236.09 162.247 236.43 162.277 236.75 162.257C237.07 162.227 237.37 162.137 237.65 161.977C237.93 161.817 238.17 161.577 238.39 161.267C238.6 160.957 238.78 160.567 238.91 160.107C239.03 159.667 239.09 159.267 239.08 158.917C239.07 158.567 239.01 158.257 238.89 157.997C238.77 157.737 238.61 157.517 238.39 157.347C238.18 157.177 237.93 157.047 237.64 156.967C237.11 156.817 236.59 156.947 236.09 157.347C235.59 157.747 235.05 158.427 234.45 159.377C233.98 160.117 233.52 160.747 233.07 161.257C232.61 161.767 232.15 162.167 231.67 162.457C231.19 162.747 230.7 162.917 230.19 162.987C229.68 163.047 229.14 162.997 228.56 162.837C227.95 162.667 227.44 162.397 227.03 162.017C226.61 161.637 226.3 161.177 226.09 160.637C225.88 160.097 225.77 159.487 225.76 158.797C225.75 158.107 225.86 157.387 226.08 156.607C226.27 155.917 226.56 155.257 226.94 154.637C227.32 154.017 227.77 153.497 228.3 153.067C228.83 152.637 229.42 152.347 230.08 152.177C230.74 152.007 231.45 152.037 232.21 152.247L231.51 154.747C231.06 154.617 230.64 154.587 230.27 154.657C229.9 154.727 229.57 154.867 229.28 155.097C228.99 155.317 228.75 155.607 228.55 155.957C228.35 156.307 228.18 156.707 228.06 157.147C227.81 158.017 227.81 158.717 228.04 159.257C228.28 159.807 228.68 160.157 229.26 160.317Z" fill="white"/>
<path d="M231.12 179.977L232.99 175.707L221.22 170.557L222.25 168.197L234.02 173.347L235.87 169.117L237.79 169.957L233.04 180.817L231.12 179.977Z" fill="white"/>
<path d="M219.01 188.437L222.19 183.187L218.26 180.807L214.54 186.937L212.77 185.857L217.84 177.507L230.61 185.257L225.58 193.547L223.79 192.457L227.47 186.387L223.94 184.247L220.76 189.497L219.01 188.437Z" fill="white"/>
<path d="M220.35 200.677L208.83 196.557L214.78 207.247L212.61 209.807L201.22 200.147L202.89 198.177L206.65 201.367L211.51 205.827L205.58 194.997L206.78 193.577L218.4 197.657L213.22 193.597L209.46 190.407L211.13 188.437L222.53 198.097L220.35 200.677Z" fill="white"/>
<path d="M97.4399 164.957C97.3899 165.597 97.2499 166.187 97.0099 166.727C96.7699 167.267 96.4299 167.727 95.9999 168.117C95.5699 168.507 95.0499 168.807 94.4399 169.017C93.8299 169.237 93.1299 169.347 92.3499 169.347C91.5399 169.347 90.8099 169.207 90.1599 168.927C89.5099 168.647 88.9699 168.237 88.5199 167.717C88.0699 167.187 87.7299 166.547 87.4899 165.797C87.2499 165.047 87.1299 164.207 87.1299 163.267V162.437C87.1299 161.507 87.2499 160.657 87.4999 159.907C87.7499 159.157 88.0999 158.517 88.5599 157.987C89.0099 157.457 89.5699 157.057 90.2199 156.767C90.8699 156.487 91.5899 156.337 92.3899 156.337C93.1799 156.337 93.8699 156.447 94.4799 156.677C95.0899 156.897 95.5999 157.207 96.0199 157.607C96.4399 158.007 96.7699 158.477 97.0099 159.027C97.2499 159.577 97.3999 160.167 97.4599 160.817H94.8499C94.8199 160.437 94.7599 160.107 94.6499 159.817C94.5499 159.527 94.3999 159.287 94.2099 159.087C94.0199 158.887 93.7699 158.737 93.4699 158.637C93.1699 158.537 92.7999 158.487 92.3699 158.487C91.4899 158.487 90.8299 158.807 90.3999 159.447C89.9699 160.087 89.7499 161.077 89.7499 162.427V163.277C89.7499 163.937 89.7999 164.507 89.8899 164.997C89.9899 165.487 90.1399 165.897 90.3399 166.227C90.5499 166.557 90.8099 166.807 91.1399 166.967C91.4699 167.127 91.8599 167.217 92.3299 167.217C92.7399 167.217 93.0999 167.167 93.3999 167.077C93.6999 166.987 93.9499 166.847 94.1499 166.657C94.3499 166.467 94.4999 166.237 94.6199 165.947C94.7299 165.667 94.7999 165.337 94.8299 164.957H97.4399Z" fill="#2E343D"/>
<path d="M106.77 163.687H101.76V167.077H107.64V169.177H99.1499V156.517H107.62V158.627H101.76V161.647H106.77V163.687Z" fill="#2E343D"/>
<path d="M113.86 164.537H111.78V169.167H109.17V156.507H113.87C114.6 156.507 115.26 156.587 115.84 156.757C116.42 156.917 116.91 157.167 117.31 157.487C117.71 157.807 118.02 158.207 118.23 158.687C118.44 159.167 118.55 159.717 118.55 160.337C118.55 160.797 118.5 161.217 118.39 161.587C118.29 161.957 118.13 162.287 117.94 162.567C117.74 162.857 117.51 163.107 117.23 163.317C116.95 163.527 116.64 163.717 116.29 163.877L119.03 169.047V169.167H116.23L113.86 164.537ZM111.78 162.427H113.88C114.22 162.427 114.52 162.387 114.78 162.297C115.04 162.207 115.25 162.077 115.42 161.917C115.59 161.757 115.72 161.557 115.81 161.327C115.9 161.097 115.94 160.837 115.94 160.557C115.94 159.957 115.77 159.487 115.43 159.147C115.09 158.807 114.57 158.637 113.87 158.637H111.77V162.427H111.78Z" fill="#2E343D"/>
<path d="M129.63 158.627H125.75V169.177H123.14V158.627H119.31V156.517H129.62V158.627H129.63Z" fill="#2E343D"/>
<path d="M133.89 169.177H131.28V156.517H133.89V169.177Z" fill="#2E343D"/>
<path d="M143.93 163.997H138.92V169.167H136.31V156.507H144.55V158.617H138.92V161.887H143.93V163.997Z" fill="#2E343D"/>
<path d="M148.84 169.177H146.23V156.517H148.84V169.177Z" fill="#2E343D"/>
<path d="M158.87 163.687H153.86V167.077H159.74V169.177H151.25V156.517H159.72V158.627H153.86V161.647H158.87V163.687Z" fill="#2E343D"/>
<path d="M161.27 169.177V156.517H165.17C166.02 156.517 166.8 156.667 167.51 156.957C168.22 157.247 168.83 157.657 169.34 158.187C169.85 158.717 170.24 159.357 170.53 160.097C170.81 160.837 170.96 161.667 170.96 162.567V163.137C170.96 164.037 170.82 164.867 170.54 165.597C170.26 166.337 169.86 166.967 169.35 167.497C168.84 168.027 168.22 168.437 167.51 168.727C166.8 169.017 166.01 169.157 165.15 169.157H161.27V169.177ZM163.88 158.627V167.077H165.14C166.17 167.077 166.96 166.737 167.5 166.057C168.04 165.377 168.31 164.407 168.31 163.137V162.547C168.31 161.257 168.04 160.287 167.51 159.617C166.98 158.957 166.2 158.617 165.17 158.617H163.88V158.627Z" fill="#2E343D"/>
</svg>
