<svg width="121" height="121" viewBox="0 0 121 121" fill="none" xmlns="http://www.w3.org/2000/svg">
<path d="M38.9093 61.5299C45.9392 68.5591 52.8455 75.4471 59.8224 82.4409C61.783 81.134 63.8849 79.8094 65.8985 78.3612C76.7259 70.6078 87.0764 62.2894 96.2436 52.5933C103.715 44.6987 109.703 35.8327 113.377 25.5184C113.695 24.6354 113.606 24.0879 112.917 23.3991C107.901 18.4539 102.938 13.4911 97.9922 8.47526C97.3033 7.7688 96.7558 7.73348 95.8726 8.05138C90.0968 10.1354 84.7096 12.9259 79.6756 16.4052C79.0927 16.7937 78.5275 17.2 77.927 17.5708C76.8849 18.2067 75.8427 18.0477 75.2599 17.1646C74.7123 16.3346 74.9243 15.3102 75.9311 14.6567C78.5275 12.9436 81.0887 11.1774 83.7911 9.65857C90.8563 5.68476 98.3985 2.9296 106.435 1.78161C110.339 1.23411 114.33 1.18112 118.287 1.00451C119.788 0.933864 120.407 1.6933 120.442 3.28282C120.672 14.6567 118.146 25.3948 112.917 35.4794C107.901 45.1932 100.977 53.441 93.0289 60.8411C92.1457 61.6535 91.7571 62.466 91.7395 63.7199C91.6865 67.8703 90.3618 71.7382 88.6484 75.4647C85.0805 83.2004 79.9759 89.8764 74.2884 96.1638C72.7694 97.8416 71.215 99.4488 69.643 101.074C68.3713 102.381 67.2055 102.222 66.2871 100.597C64.0262 96.57 61.8006 92.5256 59.5574 88.4811C59.3278 88.0749 59.0982 87.6864 58.8686 87.2625C56.5017 88.3928 54.2232 89.5231 51.9093 90.6005C50.3726 91.3069 49.9134 91.201 48.7123 90C42.9188 84.2071 37.1077 78.3965 31.3142 72.6036C30.1661 71.4556 30.0602 70.9964 30.7667 69.4952C31.8265 67.2169 32.9569 64.9562 34.105 62.5543C33.8224 62.3777 33.4868 62.1657 33.1158 61.9715C28.9827 59.6755 24.8319 57.3795 20.6987 55.0659C19.1974 54.2358 19.0207 53.0348 20.2042 51.8692C26.4039 45.723 32.9922 40.0537 40.5343 35.5854C44.7911 33.0598 49.2599 30.9758 54.1702 30.0574C55.4596 29.8102 56.7843 29.6689 58.1091 29.6689C59.0099 29.6689 59.5928 29.351 60.211 28.7328C63.249 25.7304 66.3224 22.7633 69.4134 19.7962C69.696 19.5313 69.9963 19.2663 70.3319 19.0897C71.162 18.6658 71.9569 18.8071 72.5221 19.5136C73.0697 20.1847 73.0696 20.9442 72.5398 21.6683C72.3985 21.8626 72.2395 22.0215 72.0629 22.1805C61.8536 31.1701 53.287 41.6256 45.215 52.4873C42.9895 55.4897 40.9406 58.6158 38.9093 61.5299ZM68.4596 97.2058C75.0656 90.3002 81.0357 83.1121 85.1335 74.5816C86.4936 71.7558 87.5887 68.8241 88.0126 65.4154C79.605 72.6919 71.0561 79.4209 61.8536 85.3197C64.0792 89.3289 66.2164 93.179 68.4596 97.2058ZM36.0479 59.5342C41.9474 50.2973 48.73 41.8199 55.6892 33.4307C42.8835 36.1859 33.5044 44.3454 24.1254 52.9112C28.2055 55.1895 32.0914 57.3442 36.0479 59.5342ZM116.768 4.53678C111.469 4.64275 106.294 5.08428 101.419 6.40888C105.958 10.9478 110.48 15.4691 114.966 19.9551C116.079 16.5112 117.174 7.52154 116.768 4.53678ZM56.3957 84.5073C49.8428 77.955 43.4134 71.5262 36.8781 64.9915C36.0302 66.6694 35.1824 68.3649 34.3699 70.0603C34.2816 70.2546 34.4229 70.6432 34.5819 70.8551C35.0411 71.4733 35.571 72.0384 36.0303 72.5859C37.6376 71.4909 38.4324 71.4026 39.1389 72.162C39.3862 72.427 39.6865 72.8508 39.6335 73.1687C39.5275 73.8575 39.2273 74.511 39.0506 75.0408C39.7925 75.8533 40.5343 76.6657 41.2938 77.5134C42.1593 76.7363 43.0601 76.3301 44.0493 77.0896C44.8794 77.7077 44.8264 78.5201 44.0316 80.0037C44.8088 80.8691 45.5506 81.7168 46.2925 82.5293C47.5819 81.5402 48.3944 81.4519 49.1539 82.1584C49.9311 82.8825 49.8781 83.6596 48.8183 85.3374C49.3305 85.7789 49.8604 86.3088 50.461 86.7327C50.7259 86.9093 51.1851 87.0506 51.4501 86.9446C53.1281 86.1851 54.7354 85.3551 56.3957 84.5073Z" fill="#FF8B36" stroke="#FF8B36" stroke-width="0.5" stroke-miterlimit="10"/>
<path d="M29.5655 78.2022C35.1824 78.1846 40.3223 81.7345 42.2829 86.9622C44.2965 92.3489 42.8835 98.3361 38.5207 102.01C30.59 108.686 22.0588 114.496 12.5207 118.664C10.7721 119.441 8.84679 119.954 6.95685 120.254C2.80603 120.943 0.403854 118.346 1.12804 114.178C1.65793 111.088 2.84138 108.209 4.27208 105.454C8.49355 97.3648 13.4569 89.7881 19.4093 82.8471C21.9351 79.8977 25.662 78.2022 29.5655 78.2022ZM39.6158 91.5542C39.5628 91.0773 39.5628 90.3709 39.3862 89.6997C38.3617 85.673 35.8536 82.9708 31.7911 82.0524C27.9229 81.187 24.5316 82.3173 21.9528 85.3551C15.9827 92.3666 10.931 99.9963 6.90386 108.262C5.86174 110.399 5.24355 112.765 4.62534 115.061C4.25442 116.492 4.87263 117.075 6.33866 116.775C7.96366 116.439 9.62397 116.068 11.1253 115.397C20.3454 111.229 28.7354 105.719 36.4011 99.1309C38.5914 97.2411 39.5628 94.6802 39.6158 91.5542Z" fill="#FF8B36" stroke="#FF8B36" stroke-width="0.5" stroke-miterlimit="10"/>
<path d="M98.84 32.7243C98.6811 38.3053 94.0887 42.7913 88.7191 42.6323C83.1376 42.4557 78.6688 37.9168 78.7748 32.5124C78.8985 26.9138 83.5792 22.3571 88.9841 22.5514C94.6186 22.781 98.999 27.2846 98.84 32.7243ZM88.8427 26.119C85.2572 26.1013 82.3958 28.9095 82.3428 32.4947C82.2898 36.1153 85.1512 39.0294 88.7721 39.0471C92.34 39.0648 95.2191 36.2389 95.2721 32.6713C95.3251 29.0508 92.4637 26.1367 88.8427 26.119Z" fill="#FF8B36" stroke="#FF8B36" stroke-width="0.5" stroke-miterlimit="10"/>
<path d="M78.7748 52.6464C78.7925 58.1391 74.3237 62.6428 68.7952 62.7134C63.355 62.784 58.639 58.0685 58.6919 52.6111C58.7626 47.1008 63.2843 42.5971 68.7599 42.6148C74.2531 42.6325 78.7571 47.1361 78.7748 52.6464ZM75.2069 52.5935C75.1892 49.0259 72.3101 46.1824 68.7422 46.1824C65.1213 46.1824 62.2245 49.0965 62.2599 52.6994C62.2952 56.2847 65.1566 59.1105 68.7245 59.1105C72.3631 59.1282 75.2422 56.214 75.2069 52.5935Z" fill="#FF8B36" stroke="#FF8B36" stroke-width="0.5" stroke-miterlimit="10"/>
<path d="M36.0655 91.8014C36.0655 93.6912 35.412 95.3514 33.9989 96.57C29.3182 100.597 24.4962 104.447 19.1443 107.573C18.1199 108.173 16.9894 108.633 15.8766 109.057C14.7992 109.463 13.7217 109.392 12.8386 108.527C12.0261 107.732 11.9201 106.655 12.3264 105.701C13.1565 103.793 13.969 101.815 15.1701 100.138C18.2435 95.8459 21.4758 91.6778 24.7435 87.545C26.4215 85.408 29.4242 84.7899 31.95 85.7436C34.4228 86.6973 36.0655 89.1169 36.0655 91.8014ZM16.4949 104.535C16.5832 104.606 16.6715 104.677 16.7598 104.747C16.8658 104.712 16.9718 104.677 17.0777 104.624C22.2883 101.586 27.022 97.8593 31.5791 93.9384C31.9147 93.6559 32.162 93.2143 32.3209 92.7905C32.8332 91.3952 32.3033 90.0176 31.0492 89.2759C29.8128 88.5517 28.3114 88.7637 27.287 90C25.1851 92.5432 23.0832 95.0864 21.1226 97.7356C19.4799 99.9433 18.0315 102.257 16.4949 104.535Z" fill="#FF8B36" stroke="#FF8B36" stroke-width="0.5" stroke-miterlimit="10"/>
</svg>
